<svg width="136" height="70" viewBox="0 0 136 70" fill="none" xmlns="http://www.w3.org/2000/svg">
<path d="M123.688 35.3702C121.368 35.3706 119.096 36.025 117.133 37.2579C116.602 33.8783 114.878 30.7987 112.271 28.5737C109.664 26.3488 106.346 25.1245 102.914 25.1215C102.05 25.1236 101.189 25.2057 100.341 25.3667C101.471 23.0339 102.073 20.4822 102.104 17.892C102.135 15.3018 101.594 12.7364 100.521 10.3774C99.4472 8.01832 97.8667 5.92319 95.891 4.24019C93.9153 2.55718 91.5927 1.32744 89.0874 0.637906C86.5822 -0.0516233 83.9556 -0.184081 81.3934 0.24991C78.8311 0.683901 76.3958 1.67373 74.2598 3.14939C72.1237 4.62505 70.3391 6.5505 69.0321 8.78952C67.7252 11.0285 66.9278 13.5264 66.6964 16.1065C64.7399 15.0507 62.492 14.6574 60.2916 14.9858C58.0913 15.3142 56.0577 16.3466 54.4973 17.9273C52.4734 15.2055 49.6398 13.1891 46.3997 12.165C43.1596 11.1409 39.678 11.1612 36.4501 12.2232C33.2223 13.2851 30.4127 15.3346 28.421 18.0799C26.4293 20.8253 25.357 24.1267 25.3565 27.5146C25.3565 27.5146 25.3565 27.5592 25.3565 27.5815C22.1101 27.884 19.055 29.2476 16.6667 31.46C14.2784 33.6724 12.6907 36.6095 12.1507 39.8144C11.3475 39.6029 10.5208 39.4931 9.69004 39.4874C8.14085 39.488 6.61435 39.8587 5.23847 40.5683C3.86259 41.278 2.67739 42.3059 1.7822 43.5661C0.887004 44.8263 0.307903 46.282 0.0933857 47.8112C-0.121131 49.3403 0.0351953 50.8985 0.549279 52.3551C1.06336 53.8116 1.92023 55.1242 3.04807 56.1827C4.17591 57.2413 5.54188 58.015 7.03151 58.439C8.52114 58.8631 10.091 58.9251 11.6096 58.6199C13.1283 58.3148 14.5514 57.6512 15.7598 56.685C16.7988 57.6443 18.1236 58.2393 19.5329 58.3795C19.8085 59.8211 20.4887 61.1553 21.4945 62.2271C22.5004 63.299 23.7905 64.0645 25.2153 64.4349C26.6401 64.8053 28.1411 64.7653 29.5441 64.3197C30.947 63.874 32.1943 63.0409 33.1413 61.9171C34.4598 63.887 36.2446 65.5031 38.3382 66.6228C40.4318 67.7424 42.7697 68.3312 45.1456 68.3371C47.5215 68.3429 49.8623 67.7658 51.9614 66.6565C54.0605 65.5472 55.8534 63.9399 57.1817 61.9766C58.7566 64.5294 60.9862 66.6174 63.6405 68.0252C66.2949 69.433 69.278 70.1097 72.2822 69.9855C75.2864 69.8613 78.203 68.9408 80.7313 67.3187C83.2596 65.6966 85.308 63.4318 86.6654 60.7577C87.99 62.7327 89.8086 64.3291 91.9417 65.3891C94.0748 66.4491 96.4486 66.936 98.8283 66.8016C101.208 66.6673 103.511 65.9163 105.511 64.6231C107.51 63.3298 109.136 61.5389 110.229 59.4274C111.474 59.8907 112.813 60.0455 114.131 59.8785C115.45 59.7115 116.708 59.2276 117.797 58.4687C119.446 59.3603 121.278 59.8649 123.153 59.944C125.027 60.0232 126.895 59.6748 128.614 58.9253C130.333 58.1759 131.858 57.0452 133.072 55.6194C134.286 54.1937 135.157 52.5106 135.62 50.6983C136.082 48.886 136.123 46.9923 135.74 45.1617C135.357 43.3311 134.56 41.6118 133.409 40.1349C132.258 38.6579 130.784 37.4623 129.1 36.6392C127.415 35.8161 125.564 35.3871 123.688 35.385V35.3702Z" fill="white"/>
</svg>
