<svg width="64" height="64" viewBox="0 0 64 64" fill="none" xmlns="http://www.w3.org/2000/svg">
<path d="M32 0C14.3269 0 0 14.3269 0 32C0 49.6731 14.3269 64 32 64C49.6731 64 64 49.6731 64 32C64 14.3269 49.6731 0 32 0Z" fill="#EE9A1C" fill-opacity="0.35"/>
<path d="M56.2759 34.207C55.6665 34.207 55.1725 33.713 55.1725 33.1036V30.8967C55.1725 30.2872 55.6665 29.7932 56.2759 29.7932C56.8853 29.7932 57.3794 30.2872 57.3794 30.8967V33.1036C57.3794 33.713 56.8853 34.207 56.2759 34.207Z" fill="#95A5A5"/>
<path d="M51.862 35.3764V28.6233C51.8586 27.9664 52.1503 27.3426 52.6565 26.924L56.0993 24.055C54.7255 19.8734 52.2835 16.1231 49.0151 13.175C47.5626 11.854 45.9588 10.7095 44.2372 9.76538C34.2837 4.28194 21.898 6.08555 13.9217 14.18C5.94535 22.2744 4.32395 34.6852 9.95307 44.5571C14.4627 52.4837 22.8804 57.3792 32 57.3792C42.9562 57.3849 52.6767 50.3526 56.0993 39.9447L52.6565 37.0757C52.1503 36.6571 51.8586 36.0333 51.862 35.3764Z" fill="url(#paint0_linear)"/>
<path d="M32.0013 51.8621C32.9334 51.8625 33.7652 51.2774 34.0798 50.4C34.3944 49.5226 34.1238 48.5422 33.4038 47.9504C33.2581 47.8257 30.8979 45.7104 30.8979 40.8276C30.8615 38.0897 31.8706 35.441 33.7194 33.4212C35.9362 31.0001 37.2574 27.8931 37.4634 24.6168C37.5002 24.1379 37.5186 23.6565 37.5186 23.1724C37.5186 16.0143 33.5461 12.757 33.3806 12.6212C32.4287 11.8595 31.0395 12.0136 30.2777 12.9655C29.516 13.9174 29.6701 15.3066 30.622 16.0684C30.6992 16.1346 33.1048 18.2433 33.1048 23.1724C33.1048 23.541 33.0915 23.9095 33.0628 24.2759C32.9319 26.5828 32.0036 28.7725 30.4366 30.4706C27.8496 33.2945 26.4362 36.9982 26.4841 40.8276C26.4841 47.9857 30.4565 51.243 30.622 51.3788C31.0135 51.6919 31.5 51.8623 32.0013 51.8621Z" fill="white"/>
<path d="M43.0357 51.8625C43.9678 51.863 44.7997 51.2778 45.1142 50.4004C45.4288 49.5231 45.1582 48.5427 44.4382 47.9508C44.2926 47.8261 41.9323 45.7108 41.9323 40.828C41.8959 38.0901 42.905 35.4414 44.7538 33.4217C46.9706 31.0005 48.2918 27.8935 48.4978 24.6173C48.5346 24.1384 48.553 23.6569 48.553 23.1729C48.553 16.0148 44.5806 12.7574 44.415 12.6217C43.7993 12.1289 42.9674 12.0021 42.2327 12.289C41.4981 12.5758 40.9723 13.2329 40.8534 14.0125C40.7345 14.7922 41.0406 15.5761 41.6564 16.0689C41.7337 16.1351 44.1392 18.2437 44.1392 23.1729C44.1392 23.5414 44.1259 23.91 44.0973 24.2763C43.9663 26.5832 43.038 28.773 41.471 30.4711C38.884 33.2949 37.4706 36.9986 37.5185 40.828C37.5185 47.9861 41.4909 51.2435 41.6564 51.3792C42.048 51.6923 42.5344 51.8627 43.0357 51.8625Z" fill="white"/>
<path d="M20.9668 51.862C21.8988 51.8625 22.7307 51.2773 23.0453 50.3999C23.3598 49.5226 23.0893 48.5422 22.3693 47.9503C22.2236 47.8256 19.8633 45.7103 19.8633 40.8275C19.827 38.0896 20.836 35.4409 22.6848 33.4212C24.9016 31 26.2229 27.893 26.4288 24.6168C26.4656 24.1379 26.484 23.6564 26.484 23.1724C26.484 16.0143 22.5116 12.7569 22.3461 12.6212C21.7303 12.1284 20.8984 12.0016 20.1638 12.2885C19.4291 12.5754 18.9033 13.2324 18.7844 14.0121C18.6656 14.7917 18.9717 15.5756 19.5875 16.0684C19.6647 16.1346 22.0702 18.2433 22.0702 23.1724C22.0702 23.5409 22.057 23.9095 22.0283 24.2758C21.8974 26.5827 20.969 28.7725 19.4021 30.4706C16.8151 33.2944 15.4016 36.9981 15.4495 40.8275C15.4495 47.9856 19.4219 51.243 19.5875 51.3787C19.979 51.6918 20.4654 51.8623 20.9668 51.862Z" fill="white"/>
<path d="M11.8965 29.2069C11.2871 29.2069 10.7931 28.7129 10.7931 28.1034C10.7931 27.494 11.2871 27 11.8965 27C12.506 27 13 27.494 13 28.1034C13 28.7129 12.506 29.2069 11.8965 29.2069Z" fill="white"/>
<path d="M14 33C13.4477 33 13 32.5523 13 32C13 31.4477 13.4477 31 14 31C14.5523 31 15 31.4477 15 32C15 32.5523 14.5523 33 14 33Z" fill="white"/>
<path d="M10.5 26C9.67157 26 9 25.3284 9 24.5C9 23.6716 9.67157 23 10.5 23C11.3284 23 12 23.6716 12 24.5C12 25.3284 11.3284 26 10.5 26Z" fill="white"/>
<defs>
<linearGradient id="paint0_linear" x1="47.9999" y1="11.5" x2="11.9999" y2="52" gradientUnits="userSpaceOnUse">
<stop stop-color="#D78304"/>
<stop offset="1" stop-color="#FF9900"/>
</linearGradient>
</defs>
</svg>
