<svg width="360" height="96" viewBox="0 0 360 96" fill="none" xmlns="http://www.w3.org/2000/svg">
<g opacity="0.2" clip-path="url(#clip0)">
<path d="M189.583 92.7715H-76.4971V102.181H189.583V92.7715Z" fill="#B5BCC3"/>
<path d="M80.1259 99.8754H68.3433L72.9343 64.7939H80.1259V99.8754Z" fill="#959FA9"/>
<path d="M70.47 34.9578V19.4122H66.6867V13.4948H64.6624V8.52388H63.9523V0H63.7691V8.52388H63.0589V13.4948H61.0347V19.4122H57.2803V34.9578H56.5003V63.1807H50.6794V95.3545H56.5003H62.3211H71.2211V34.9578H70.47Z" fill="#959FA9"/>
<path d="M92.2123 52.8159H73.8999V53.3107H74.7294V99.3486H91.3841V53.3107H92.2123V52.8159Z" fill="#959FA9"/>
<path d="M8.71019 64.2832H-7.5249V102.634H8.71019V64.2832Z" fill="#959FA9"/>
<path d="M31.3665 37.8276H11.342V102.632H31.3665V37.8276Z" fill="#959FA9"/>
<path d="M29.3988 35.6011H13.3096V46.3944H29.3988V35.6011Z" fill="#959FA9"/>
<path d="M32.9192 39.1846H9.79028V39.9428H32.9192V39.1846Z" fill="#959FA9"/>
<path d="M17.1497 69.9048H7.71436V102.633H17.1497V69.9048Z" fill="#959FA9"/>
<path d="M142.13 88.0747H29.4001V102.634H142.13V88.0747Z" fill="#959FA9"/>
<path d="M153.805 64.7095H136.396V102.632H153.805V64.7095Z" fill="#959FA9"/>
<path d="M168.666 79.4541H151.257V102.419H168.666V79.4541Z" fill="#959FA9"/>
<path d="M93.5147 76.082H83.749V95.3544H93.5147V76.082Z" fill="#959FA9"/>
<path d="M157.414 28.644H145.101V102.632H157.414V28.644Z" fill="#959FA9"/>
<path d="M177.687 102.632H161.447V59.4287H173.76L177.687 102.632Z" fill="#959FA9"/>
<path d="M184.798 92.7715H170.575V102.634H184.798V92.7715Z" fill="#959FA9"/>
<path d="M154.654 13.188H154.229V33.2939H154.654V13.188Z" fill="#959FA9"/>
<path d="M156.087 17.5015H155.663V37.6074H156.087V17.5015Z" fill="#959FA9"/>
<path d="M153.354 20.2778H152.929V40.3838H153.354V20.2778Z" fill="#959FA9"/>
<path d="M167.895 55.9365H162.084V62.7431H167.895V55.9365Z" fill="#959FA9"/>
<path d="M167.258 53.5112H162.72V57.3367H167.258V53.5112Z" fill="#959FA9"/>
<path d="M171.318 57.9316H170.204V60.6797H171.318V57.9316Z" fill="#959FA9"/>
<path d="M173.306 55.4238H171.713V60.6798H173.306V55.4238Z" fill="#959FA9"/>
<path d="M153.019 39.2725C153.008 39.1823 152.98 39.0986 152.939 39.031C152.897 38.9634 152.844 38.9149 152.784 38.8911C152.725 38.8673 152.662 38.8692 152.604 38.8966C152.545 38.924 152.493 38.9757 152.453 39.0458C152.413 39.1158 152.388 39.2012 152.38 39.2919C152.372 39.3826 152.381 39.4748 152.407 39.5578C152.433 39.6407 152.475 39.7109 152.527 39.7601C152.579 39.8092 152.639 39.8354 152.7 39.8354C152.793 39.8226 152.878 39.7564 152.937 39.651C152.997 39.5457 153.026 39.4097 153.019 39.2725Z" fill="#657482"/>
<path opacity="0.5" d="M12.9178 42.1191H12.4319V46.1131H12.9178V42.1191Z" fill="white"/>
<path opacity="0.5" d="M14.5901 42.1191H14.1042V46.1131H14.5901V42.1191Z" fill="white"/>
<path opacity="0.5" d="M16.2635 42.1191H15.7776V46.1131H16.2635V42.1191Z" fill="white"/>
<path opacity="0.5" d="M17.9356 42.1191H17.4497V46.1131H17.9356V42.1191Z" fill="white"/>
<path opacity="0.5" d="M19.6077 42.1191H19.1218V46.1131H19.6077V42.1191Z" fill="white"/>
<path opacity="0.5" d="M21.28 42.1191H20.7942V46.1131H21.28V42.1191Z" fill="white"/>
<path opacity="0.5" d="M22.9534 42.1191H22.4675V46.1131H22.9534V42.1191Z" fill="white"/>
<path opacity="0.5" d="M24.6257 42.1191H24.1399V46.1131H24.6257V42.1191Z" fill="white"/>
<path opacity="0.5" d="M26.2979 42.1191H25.812V46.1131H26.2979V42.1191Z" fill="white"/>
<path opacity="0.5" d="M27.9702 42.1191H27.4844V46.1131H27.9702V42.1191Z" fill="white"/>
<path opacity="0.5" d="M29.6424 42.1191H29.1565V46.1131H29.6424V42.1191Z" fill="white"/>
<path opacity="0.5" d="M12.9178 47.6797H12.4319V51.6736H12.9178V47.6797Z" fill="white"/>
<path opacity="0.5" d="M14.5901 47.6797H14.1042V51.6736H14.5901V47.6797Z" fill="white"/>
<path opacity="0.5" d="M16.2635 47.6797H15.7776V51.6736H16.2635V47.6797Z" fill="white"/>
<path opacity="0.5" d="M17.9356 47.6797H17.4497V51.6736H17.9356V47.6797Z" fill="white"/>
<path opacity="0.5" d="M19.6077 47.6797H19.1218V51.6736H19.6077V47.6797Z" fill="white"/>
<path opacity="0.5" d="M21.28 47.6797H20.7942V51.6736H21.28V47.6797Z" fill="white"/>
<path opacity="0.5" d="M22.9534 47.6797H22.4675V51.6736H22.9534V47.6797Z" fill="white"/>
<path opacity="0.5" d="M24.6257 47.6797H24.1399V51.6736H24.6257V47.6797Z" fill="white"/>
<path opacity="0.5" d="M26.2979 47.6797H25.812V51.6736H26.2979V47.6797Z" fill="white"/>
<path opacity="0.5" d="M27.9702 47.6797H27.4844V51.6736H27.9702V47.6797Z" fill="white"/>
<path opacity="0.5" d="M29.6424 47.6797H29.1565V51.6736H29.6424V47.6797Z" fill="white"/>
<path opacity="0.5" d="M12.9178 53.2407H12.4319V57.2347H12.9178V53.2407Z" fill="white"/>
<path opacity="0.5" d="M14.5901 53.2407H14.1042V57.2347H14.5901V53.2407Z" fill="white"/>
<path opacity="0.5" d="M16.2635 53.2407H15.7776V57.2347H16.2635V53.2407Z" fill="white"/>
<path opacity="0.5" d="M17.9356 53.2407H17.4497V57.2347H17.9356V53.2407Z" fill="white"/>
<path opacity="0.5" d="M19.6077 53.2407H19.1218V57.2347H19.6077V53.2407Z" fill="white"/>
<path opacity="0.5" d="M21.28 53.2407H20.7942V57.2347H21.28V53.2407Z" fill="white"/>
<path opacity="0.5" d="M22.9534 53.2407H22.4675V57.2347H22.9534V53.2407Z" fill="white"/>
<path opacity="0.5" d="M24.6257 53.2407H24.1399V57.2347H24.6257V53.2407Z" fill="white"/>
<path opacity="0.5" d="M26.2979 53.2407H25.812V57.2347H26.2979V53.2407Z" fill="white"/>
<path opacity="0.5" d="M27.9702 53.2407H27.4844V57.2347H27.9702V53.2407Z" fill="white"/>
<path opacity="0.5" d="M29.6424 53.2407H29.1565V57.2347H29.6424V53.2407Z" fill="white"/>
<path opacity="0.5" d="M17.9356 58.7993H17.4497V62.7933H17.9356V58.7993Z" fill="white"/>
<path opacity="0.5" d="M19.6077 58.7993H19.1218V62.7933H19.6077V58.7993Z" fill="white"/>
<path opacity="0.5" d="M21.28 58.7993H20.7942V62.7933H21.28V58.7993Z" fill="white"/>
<path opacity="0.5" d="M22.9534 58.7993H22.4675V62.7933H22.9534V58.7993Z" fill="white"/>
<path opacity="0.5" d="M24.6257 58.7993H24.1399V62.7933H24.6257V58.7993Z" fill="white"/>
<path opacity="0.5" d="M26.2979 58.7993H25.812V62.7933H26.2979V58.7993Z" fill="white"/>
<path opacity="0.5" d="M27.9702 58.7993H27.4844V62.7933H27.9702V58.7993Z" fill="white"/>
<path opacity="0.5" d="M29.6424 58.7993H29.1565V62.7933H29.6424V58.7993Z" fill="white"/>
<path opacity="0.5" d="M19.6077 64.6685H19.1218V68.6624H19.6077V64.6685Z" fill="white"/>
<path opacity="0.5" d="M21.28 64.6685H20.7942V68.6624H21.28V64.6685Z" fill="white"/>
<path opacity="0.5" d="M22.9534 64.6685H22.4675V68.6624H22.9534V64.6685Z" fill="white"/>
<path opacity="0.5" d="M24.6257 64.6685H24.1399V68.6624H24.6257V64.6685Z" fill="white"/>
<path opacity="0.5" d="M26.2979 64.6685H25.812V68.6624H26.2979V64.6685Z" fill="white"/>
<path opacity="0.5" d="M27.9702 64.6685H27.4844V68.6624H27.9702V64.6685Z" fill="white"/>
<path opacity="0.5" d="M29.6424 64.6685H29.1565V68.6624H29.6424V64.6685Z" fill="white"/>
<path opacity="0.5" d="M76.9238 56.6538H75.9834V62.0334H76.9238V56.6538Z" fill="white"/>
<path opacity="0.5" d="M79.799 56.6538H78.8586V62.0334H79.799V56.6538Z" fill="white"/>
<path opacity="0.5" d="M82.507 56.6538H81.5667V62.0334H82.507V56.6538Z" fill="white"/>
<path d="M5.90118 68.252H-6.75439V143.153H5.90118V68.252Z" fill="#B5BBC3"/>
<path d="M3.83469 62.8828H-4.68555V94.3575H3.83469V62.8828Z" fill="#B5BBC3"/>
<path d="M1.93703 59.4751H-2.78906V76.9333H1.93703V59.4751Z" fill="#B5BBC3"/>
<path d="M1.18362 68.4469H-2.03662V56.5493H-0.874391H0.276984H1.18362V68.4469Z" fill="#B5BBC3"/>
<path d="M0.135763 59.1525H-0.213867V47.2549H-0.0884863H0.036902H0.135763V59.1525Z" fill="#B5BBC3"/>
<path d="M6.23867 68.0601H-7.09204V68.8578H6.23867V68.0601Z" fill="#B5BBC3"/>
<path d="M4.14455 62.4976H-4.99658V63.2648H4.14455V62.4976Z" fill="#B5BBC3"/>
<path d="M2.13484 59.1523H-3.13379V59.7421H2.13484V59.1523Z" fill="#B5BBC3"/>
<path opacity="0.29" d="M0.877362 64.1592H0.480713V67.4576H0.877362V64.1592Z" fill="#B5BBC3"/>
<path opacity="0.29" d="M1.97308 64.1592H1.57642V67.4576H1.97308V64.1592Z" fill="#B5BBC3"/>
<path opacity="0.29" d="M3.06901 64.1592H2.67236V67.4576H3.06901V64.1592Z" fill="#B5BBC3"/>
<path d="M1.00022 71.2383H0.0429688V75.1516H1.00022V71.2383Z" fill="#B5BBC3"/>
<path d="M2.89553 71.2383H1.93823V75.1516H2.89553V71.2383Z" fill="#B5BBC3"/>
<path d="M4.79077 71.2383H3.8335V75.1516H4.79077V71.2383Z" fill="#B5BBC3"/>
<path opacity="0.29" d="M1.00022 77.3364H0.0429688V81.2497H1.00022V77.3364Z" fill="#B5BBC3"/>
<path d="M2.89553 77.3364H1.93823V81.2497H2.89553V77.3364Z" fill="#B5BBC3"/>
<path d="M4.79077 77.3364H3.8335V81.2497H4.79077V77.3364Z" fill="#B5BBC3"/>
<path d="M1.00022 83.437H0.0429688V87.3503H1.00022V83.437Z" fill="#B5BBC3"/>
<path opacity="0.29" d="M2.89553 83.437H1.93823V87.3503H2.89553V83.437Z" fill="#B5BBC3"/>
<path opacity="0.29" d="M4.79077 83.437H3.8335V87.3503H4.79077V83.437Z" fill="#B5BBC3"/>
<path d="M1.00022 89.5352H0.0429688V93.4484H1.00022V89.5352Z" fill="#B5BBC3"/>
<path d="M2.89553 89.5352H1.93823V93.4484H2.89553V89.5352Z" fill="#B5BBC3"/>
<path d="M4.79077 89.5352H3.8335V93.4484H4.79077V89.5352Z" fill="#B5BBC3"/>
<path opacity="0.29" d="M1.00022 95.6357H0.0429688V99.549H1.00022V95.6357Z" fill="#B5BBC3"/>
<path d="M2.89553 95.6357H1.93823V99.549H2.89553V95.6357Z" fill="#B5BBC3"/>
<path d="M4.79077 95.6357H3.8335V99.549H4.79077V95.6357Z" fill="#B5BBC3"/>
<path d="M145.306 139.001H123.037L120.258 46.2314L145.306 53.963V139.001Z" fill="#B5BBC3"/>
<path d="M48.1477 86.0219V55.0061H44.655V46.6973H43.4072V34.5129H36.5326V25.5588H35.9214V34.5129H34.5747V23.3037H33.9622V34.5129H29.6171V55.0061H27.3722V86.0219H25.448V142.514H49.5005V86.0219H48.1477Z" fill="#B5BBC3"/>
<path opacity="0.5" d="M31.8067 36.8164H30.853V40.6006H31.8067V36.8164Z" fill="white"/>
<path opacity="0.5" d="M34.1602 36.8164H33.2065V40.6006H34.1602V36.8164Z" fill="white"/>
<path opacity="0.5" d="M36.5137 36.8164H35.5601V40.6006H36.5137V36.8164Z" fill="white"/>
<path opacity="0.5" d="M38.8682 36.8164H37.9146V40.6006H38.8682V36.8164Z" fill="white"/>
<path opacity="0.5" d="M31.8067 43.1177H30.853V46.9019H31.8067V43.1177Z" fill="white"/>
<path opacity="0.5" d="M34.1602 43.1177H33.2065V46.9019H34.1602V43.1177Z" fill="white"/>
<path opacity="0.5" d="M36.5137 43.1177H35.5601V46.9019H36.5137V43.1177Z" fill="white"/>
<path opacity="0.5" d="M38.8682 43.1177H37.9146V46.9019H38.8682V43.1177Z" fill="white"/>
<path opacity="0.5" d="M31.8067 49.4204H30.853V53.2046H31.8067V49.4204Z" fill="white"/>
<path opacity="0.5" d="M34.1602 49.4204H33.2065V53.2046H34.1602V49.4204Z" fill="white"/>
<path opacity="0.5" d="M41.5374 36.8164H40.5837V40.6006H41.5374V36.8164Z" fill="white"/>
<path d="M185.89 122.532L183.917 102.918H179.883V86.6407H180.383V85.1689H178.425V78.8285H178.185V85.1689H176.832V79.974H176.593V85.1689H168.435V86.6407H168.992V119.666H159.678V104.873H154.373V68.5227H154.859V66.7391H153.799V64.4553H152.581V63.5984V60.9866V58.7225H151.108V54.6748H150.931H150.755V58.7225H149.962L149.482 60.9866H146.273V64.4553H137.871V66.7391H136.811V68.5227H137.297V92.1727H130.267V115.412L122.466 110.273V87.7163H123.725V86.0599H121.51V81.5622H112.029V86.0599H108.932V81.5622H107.34V86.0599H105.748V81.5622H103.997V86.0599H100.334V87.7163H100.891V118.979H97.3359V118.651H96.6921V109.744H97.3359V109.029H96.6921V100.119H97.3359V99.4041H96.6921V90.4966H97.3359V89.7813H96.6921V80.8721H97.3359V80.1568H96.6921V71.2493H97.3359V70.5341H96.6921V61.3146H97.7953V60.5976H98.3559V58.6419H87.8825V56.4692H88.2237V55.84H82.5223V56.4692H82.8622V58.6419H80.2677V60.5976H80.8283V61.3146H81.9315V70.5341H81.2877V71.2493H81.9315V80.1568H81.2877V80.8721H81.9315V89.7813H81.2877V90.4966H81.9315V99.4041H81.2877V100.119H81.9315V109.029H81.2877V109.744H81.9315V118.651H81.2877V119.367H81.9315V126.646H78.3568V98.515H63.9735V118.979H61.6382V55.2269H59.9106V56.8672L56.7229 58.027V56.9622H54.9952V58.6562L51.8075 59.816V58.5935H50.0798V60.4434L46.8909 61.6033V60.594H45.1632V62.2307L41.9755 63.3905V62.5229H40.2478V125.13H37.8173V91.7514H28.8148V112.277H19.5856V94.7738H18.4487V89.0249H19.1239V88.4476H16.1363V86.6407H15.818V88.4476H14.8632V79.1709H14.6244V88.4476H13.3802V89.0249H14.112V94.7738H8.02117V108.125H2.09064L-1.00542 125.13H-7.21928V69.6109H-15.4465V67.6229H-14.98V66.9255H-21.2107V67.6229H-20.7212V69.6109V72.8107V110.832H-24.5997V96.466H-23.2217V95.1664H-32.9825V86.4865H-34.8452V84.7029H-39.0011V86.4865H-42.3829V117.475H-53.4783V94.4923H-62.8208V112.646H-70.9287V124.26H-76.7736V109.66H-84.462V122.109H-91.4221V143.284H-84.462H-82.1098H-78.2662H-76.7736H-70.9287H-62.8208H-60.0961H-58.6373H-53.4783H-42.3829H-39.0011H-34.8452H-32.9825H-25.7005H-24.5997H-20.7212H-14.2156H-11.0098H-7.21928H8.02117H11.5404H17.4818H19.5856H28.9727H31.4949H40.2478H41.1123H41.9755H45.1632H46.8909H50.0798H51.5229H51.8075H54.9952H56.7229H59.4633H59.9106H60.775H61.6382H63.9735H75.8623H77.5599H78.3568H81.9315H88.2237H93.9842H96.6921H100.891H111.321H122.35H122.466H130.267H134.627H137.297H138.982H152.036H154.373H157.169H159.678H168.992H175.918H177.336H179.883H195.381V122.532H185.89Z" fill="#656F82"/>
<path opacity="0.33" d="M44.1431 66.8755H42.9966V71.1993H44.1431V66.8755Z" fill="white"/>
<path opacity="0.33" d="M44.1431 75.145H42.9966V79.4688H44.1431V75.145Z" fill="white"/>
<path opacity="0.33" d="M44.1431 83.416H42.9966V87.7398H44.1431V83.416Z" fill="white"/>
<path opacity="0.33" d="M44.1431 91.6851H42.9966V96.0089H44.1431V91.6851Z" fill="white"/>
<path opacity="0.33" d="M49.0587 66.8755H47.9121V71.1993H49.0587V66.8755Z" fill="white"/>
<path opacity="0.33" d="M49.0587 75.145H47.9121V79.4688H49.0587V75.145Z" fill="white"/>
<path opacity="0.33" d="M49.0587 83.416H47.9121V87.7398H49.0587V83.416Z" fill="white"/>
<path opacity="0.33" d="M49.0587 91.6851H47.9121V96.0089H49.0587V91.6851Z" fill="white"/>
<path opacity="0.33" d="M53.974 66.8755H52.8274V71.1993H53.974V66.8755Z" fill="white"/>
<path opacity="0.33" d="M53.974 75.145H52.8274V79.4688H53.974V75.145Z" fill="white"/>
<path opacity="0.33" d="M53.974 83.416H52.8274V87.7398H53.974V83.416Z" fill="white"/>
<path opacity="0.33" d="M53.974 91.6851H52.8274V96.0089H53.974V91.6851Z" fill="white"/>
<path opacity="0.33" d="M58.8907 66.8755H57.7441V71.1993H58.8907V66.8755Z" fill="white"/>
<path opacity="0.33" d="M58.8907 75.145H57.7441V79.4688H58.8907V75.145Z" fill="white"/>
<path opacity="0.33" d="M58.8907 83.416H57.7441V87.7398H58.8907V83.416Z" fill="white"/>
<path opacity="0.33" d="M58.8907 91.6851H57.7441V96.0089H58.8907V91.6851Z" fill="white"/>
<path opacity="0.33" d="M139.696 72.6152H138.982V75.6412H139.696V72.6152Z" fill="white"/>
<path opacity="0.33" d="M141.932 72.6152H141.219V75.6412H141.932V72.6152Z" fill="white"/>
<path opacity="0.33" d="M139.696 72.6152H138.982V75.6412H139.696V72.6152Z" fill="white"/>
<path opacity="0.33" d="M141.932 72.6152H141.219V75.6412H141.932V72.6152Z" fill="white"/>
<path opacity="0.33" d="M144.046 72.6152H143.332V75.6412H144.046V72.6152Z" fill="white"/>
<path opacity="0.33" d="M146.282 72.6152H145.569V75.6412H146.282V72.6152Z" fill="white"/>
<path opacity="0.33" d="M139.696 78.0396H138.982V81.0655H139.696V78.0396Z" fill="white"/>
<path opacity="0.33" d="M141.932 78.0396H141.219V81.0655H141.932V78.0396Z" fill="white"/>
<path opacity="0.33" d="M139.696 78.0396H138.982V81.0655H139.696V78.0396Z" fill="white"/>
<path opacity="0.33" d="M141.932 78.0396H141.219V81.0655H141.932V78.0396Z" fill="white"/>
<path opacity="0.33" d="M144.046 78.0396H143.332V81.0655H144.046V78.0396Z" fill="white"/>
<path opacity="0.33" d="M146.282 78.0396H145.569V81.0655H146.282V78.0396Z" fill="white"/>
<path opacity="0.33" d="M139.696 83.814H138.982V86.8399H139.696V83.814Z" fill="white"/>
<path opacity="0.33" d="M141.932 83.814H141.219V86.8399H141.932V83.814Z" fill="white"/>
<path opacity="0.33" d="M139.696 83.814H138.982V86.8399H139.696V83.814Z" fill="white"/>
<path opacity="0.33" d="M141.932 83.814H141.219V86.8399H141.932V83.814Z" fill="white"/>
<path opacity="0.33" d="M144.046 83.814H143.332V86.8399H144.046V83.814Z" fill="white"/>
<path opacity="0.33" d="M146.282 83.814H145.569V86.8399H146.282V83.814Z" fill="white"/>
<path opacity="0.33" d="M148.727 72.6152H148.014V75.6412H148.727V72.6152Z" fill="white"/>
<path opacity="0.33" d="M148.727 78.0396H148.014V81.0655H148.727V78.0396Z" fill="white"/>
<path opacity="0.33" d="M150.964 72.6152H150.25V75.6412H150.964V72.6152Z" fill="white"/>
<path opacity="0.33" d="M84.0268 63.6377H83.26V68.3541H84.0268V63.6377Z" fill="white"/>
<path opacity="0.33" d="M87.8403 63.6377H87.0735V68.3541H87.8403V63.6377Z" fill="white"/>
<path opacity="0.33" d="M91.6537 63.6377H90.887V68.3541H91.6537V63.6377Z" fill="white"/>
<path opacity="0.33" d="M95.4685 63.6377H94.7017V68.3541H95.4685V63.6377Z" fill="white"/>
<path opacity="0.33" d="M84.0268 73.3447H83.26V78.0611H84.0268V73.3447Z" fill="white"/>
<path opacity="0.33" d="M87.8403 73.3447H87.0735V78.0611H87.8403V73.3447Z" fill="white"/>
<path opacity="0.33" d="M91.6537 73.3447H90.887V78.0611H91.6537V73.3447Z" fill="white"/>
<path opacity="0.33" d="M95.4685 73.3447H94.7017V78.0611H95.4685V73.3447Z" fill="white"/>
<path opacity="0.33" d="M84.0268 83.2939H83.26V88.0103H84.0268V83.2939Z" fill="white"/>
<path opacity="0.33" d="M87.8403 83.2939H87.0735V88.0103H87.8403V83.2939Z" fill="white"/>
<path opacity="0.33" d="M91.6537 83.2939H90.887V88.0103H91.6537V83.2939Z" fill="white"/>
<path opacity="0.33" d="M95.4685 83.2939H94.7017V88.0103H95.4685V83.2939Z" fill="white"/>
<path opacity="0.33" d="M84.0268 93.2427H83.26V97.9591H84.0268V93.2427Z" fill="white"/>
<path opacity="0.33" d="M87.8403 93.2427H87.0735V97.9591H87.8403V93.2427Z" fill="white"/>
<path opacity="0.33" d="M91.6537 93.2427H90.887V97.9591H91.6537V93.2427Z" fill="white"/>
<path opacity="0.33" d="M95.4685 93.2427H94.7017V97.9591H95.4685V93.2427Z" fill="white"/>
<path opacity="0.33" d="M170.74 88.5732H169.956V91.2801H170.74V88.5732Z" fill="white"/>
<path opacity="0.33" d="M170.74 92.9438H169.956V95.6507H170.74V92.9438Z" fill="white"/>
<path opacity="0.33" d="M172.75 88.5732H171.966V91.2801H172.75V88.5732Z" fill="white"/>
<path d="M327.958 116.875H316.175L320.766 81.7939H327.958V116.875Z" fill="#959FA9"/>
<path d="M340.045 69.8154H321.732V70.3102H322.562V116.348H339.216V70.3102H340.045V69.8154Z" fill="#959FA9"/>
<path d="M256.542 81.2827H240.307V119.634H256.542V81.2827Z" fill="#959FA9"/>
<path d="M247.435 88.147H236.767V119.632H247.435V88.147Z" fill="#959FA9"/>
<path d="M279.198 54.8276H259.174V119.632H279.198V54.8276Z" fill="#959FA9"/>
<path d="M277.231 52.6011H261.142V63.3944H277.231V52.6011Z" fill="#959FA9"/>
<path d="M280.751 56.1846H257.622V56.9428H280.751V56.1846Z" fill="#959FA9"/>
<path d="M264.982 86.9048H255.546V119.633H264.982V86.9048Z" fill="#959FA9"/>
<path d="M198.795 85.6621H187.968V119.634H198.795V85.6621Z" fill="#959FA9"/>
<path d="M213.044 76.4287H191.47V119.632H213.044V76.4287Z" fill="#959FA9"/>
<path d="M213.601 74.772H190.212V76.4283H213.601V74.772Z" fill="#959FA9"/>
<path d="M201.906 70.2744H192.425V79.0331H201.906V70.2744Z" fill="#959FA9"/>
<path d="M206.596 70.2744H205.004V75.6003H206.596V70.2744Z" fill="#959FA9"/>
<path d="M209.939 70.2744H208.188V75.6003H209.939V70.2744Z" fill="#959FA9"/>
<path d="M341.347 93.082H331.581V112.354H341.347V93.082Z" fill="#959FA9"/>
<path opacity="0.5" d="M260.75 59.1191H260.264V63.1131H260.75V59.1191Z" fill="white"/>
<path opacity="0.5" d="M262.422 59.1191H261.936V63.1131H262.422V59.1191Z" fill="white"/>
<path opacity="0.5" d="M264.095 59.1191H263.61V63.1131H264.095V59.1191Z" fill="white"/>
<path opacity="0.5" d="M265.768 59.1191H265.282V63.1131H265.768V59.1191Z" fill="white"/>
<path opacity="0.5" d="M267.44 59.1191H266.954V63.1131H267.44V59.1191Z" fill="white"/>
<path opacity="0.5" d="M269.112 59.1191H268.626V63.1131H269.112V59.1191Z" fill="white"/>
<path opacity="0.5" d="M270.786 59.1191H270.3V63.1131H270.786V59.1191Z" fill="white"/>
<path opacity="0.5" d="M272.458 59.1191H271.972V63.1131H272.458V59.1191Z" fill="white"/>
<path opacity="0.5" d="M274.13 59.1191H273.644V63.1131H274.13V59.1191Z" fill="white"/>
<path opacity="0.5" d="M275.802 59.1191H275.316V63.1131H275.802V59.1191Z" fill="white"/>
<path opacity="0.5" d="M277.474 59.1191H276.989V63.1131H277.474V59.1191Z" fill="white"/>
<path opacity="0.5" d="M260.75 64.6797H260.264V68.6736H260.75V64.6797Z" fill="white"/>
<path opacity="0.5" d="M262.422 64.6797H261.936V68.6736H262.422V64.6797Z" fill="white"/>
<path opacity="0.5" d="M264.095 64.6797H263.61V68.6736H264.095V64.6797Z" fill="white"/>
<path opacity="0.5" d="M265.768 64.6797H265.282V68.6736H265.768V64.6797Z" fill="white"/>
<path opacity="0.5" d="M267.44 64.6797H266.954V68.6736H267.44V64.6797Z" fill="white"/>
<path opacity="0.5" d="M269.112 64.6797H268.626V68.6736H269.112V64.6797Z" fill="white"/>
<path opacity="0.5" d="M270.786 64.6797H270.3V68.6736H270.786V64.6797Z" fill="white"/>
<path opacity="0.5" d="M272.458 64.6797H271.972V68.6736H272.458V64.6797Z" fill="white"/>
<path opacity="0.5" d="M274.13 64.6797H273.644V68.6736H274.13V64.6797Z" fill="white"/>
<path opacity="0.5" d="M275.802 64.6797H275.316V68.6736H275.802V64.6797Z" fill="white"/>
<path opacity="0.5" d="M277.474 64.6797H276.989V68.6736H277.474V64.6797Z" fill="white"/>
<path opacity="0.5" d="M260.75 70.2407H260.264V74.2347H260.75V70.2407Z" fill="white"/>
<path opacity="0.5" d="M262.422 70.2407H261.936V74.2347H262.422V70.2407Z" fill="white"/>
<path opacity="0.5" d="M264.095 70.2407H263.61V74.2347H264.095V70.2407Z" fill="white"/>
<path opacity="0.5" d="M265.768 70.2407H265.282V74.2347H265.768V70.2407Z" fill="white"/>
<path opacity="0.5" d="M267.44 70.2407H266.954V74.2347H267.44V70.2407Z" fill="white"/>
<path opacity="0.5" d="M269.112 70.2407H268.626V74.2347H269.112V70.2407Z" fill="white"/>
<path opacity="0.5" d="M270.786 70.2407H270.3V74.2347H270.786V70.2407Z" fill="white"/>
<path opacity="0.5" d="M272.458 70.2407H271.972V74.2347H272.458V70.2407Z" fill="white"/>
<path opacity="0.5" d="M274.13 70.2407H273.644V74.2347H274.13V70.2407Z" fill="white"/>
<path opacity="0.5" d="M275.802 70.2407H275.316V74.2347H275.802V70.2407Z" fill="white"/>
<path opacity="0.5" d="M277.474 70.2407H276.989V74.2347H277.474V70.2407Z" fill="white"/>
<path opacity="0.5" d="M265.768 75.7993H265.282V79.7933H265.768V75.7993Z" fill="white"/>
<path opacity="0.5" d="M267.44 75.7993H266.954V79.7933H267.44V75.7993Z" fill="white"/>
<path opacity="0.5" d="M269.112 75.7993H268.626V79.7933H269.112V75.7993Z" fill="white"/>
<path opacity="0.5" d="M270.786 75.7993H270.3V79.7933H270.786V75.7993Z" fill="white"/>
<path opacity="0.5" d="M272.458 75.7993H271.972V79.7933H272.458V75.7993Z" fill="white"/>
<path opacity="0.5" d="M274.13 75.7993H273.644V79.7933H274.13V75.7993Z" fill="white"/>
<path opacity="0.5" d="M275.802 75.7993H275.316V79.7933H275.802V75.7993Z" fill="white"/>
<path opacity="0.5" d="M277.474 75.7993H276.989V79.7933H277.474V75.7993Z" fill="white"/>
<path opacity="0.5" d="M267.44 81.6685H266.954V85.6624H267.44V81.6685Z" fill="white"/>
<path opacity="0.5" d="M269.112 81.6685H268.626V85.6624H269.112V81.6685Z" fill="white"/>
<path opacity="0.5" d="M270.786 81.6685H270.3V85.6624H270.786V81.6685Z" fill="white"/>
<path opacity="0.5" d="M272.458 81.6685H271.972V85.6624H272.458V81.6685Z" fill="white"/>
<path opacity="0.5" d="M274.13 81.6685H273.644V85.6624H274.13V81.6685Z" fill="white"/>
<path opacity="0.5" d="M275.802 81.6685H275.316V85.6624H275.802V81.6685Z" fill="white"/>
<path opacity="0.5" d="M277.474 81.6685H276.989V85.6624H277.474V81.6685Z" fill="white"/>
<path opacity="0.5" d="M324.756 73.6533H323.815V79.033H324.756V73.6533Z" fill="white"/>
<path opacity="0.5" d="M327.631 73.6533H326.691V79.033H327.631V73.6533Z" fill="white"/>
<path opacity="0.5" d="M330.339 73.6533H329.399V79.033H330.339V73.6533Z" fill="white"/>
<path d="M253.733 85.252H241.077V160.153H253.733V85.252Z" fill="#B5BBC3"/>
<path d="M251.666 79.8828H243.146V111.358H251.666V79.8828Z" fill="#B5BBC3"/>
<path d="M249.769 76.4751H245.043V93.9333H249.769V76.4751Z" fill="#B5BBC3"/>
<path d="M249.015 85.4469H245.795V73.5493H246.957H248.109H249.015V85.4469Z" fill="#B5BBC3"/>
<path d="M247.194 80.2665H246.844V68.3672H246.971H247.095H247.194V80.2665Z" fill="#B5BBC3"/>
<path d="M247.968 76.1525H247.618V64.2549H247.744H247.869H247.968V76.1525Z" fill="#B5BBC3"/>
<path d="M254.071 85.0601H240.74V85.8578H254.071V85.0601Z" fill="#B5BBC3"/>
<path d="M251.976 79.4976H242.835V80.2648H251.976V79.4976Z" fill="#B5BBC3"/>
<path d="M249.967 76.1523H244.698V76.7421H249.967V76.1523Z" fill="#B5BBC3"/>
<path opacity="0.29" d="M244.325 81.1592H243.929V84.4576H244.325V81.1592Z" fill="#B5BBC3"/>
<path opacity="0.29" d="M245.421 81.1592H245.025V84.4576H245.421V81.1592Z" fill="#B5BBC3"/>
<path opacity="0.29" d="M246.517 81.1592H246.121V84.4576H246.517V81.1592Z" fill="#B5BBC3"/>
<path opacity="0.29" d="M247.613 81.1592H247.217V84.4576H247.613V81.1592Z" fill="#B5BBC3"/>
<path opacity="0.29" d="M248.709 81.1592H248.312V84.4576H248.709V81.1592Z" fill="#B5BBC3"/>
<path opacity="0.29" d="M249.805 81.1592H249.408V84.4576H249.805V81.1592Z" fill="#B5BBC3"/>
<path opacity="0.29" d="M250.901 81.1592H250.504V84.4576H250.901V81.1592Z" fill="#B5BBC3"/>
<path d="M243.146 88.2383H242.189V92.1516H243.146V88.2383Z" fill="#B5BBC3"/>
<path opacity="0.29" d="M245.041 88.2383H244.084V92.1516H245.041V88.2383Z" fill="#B5BBC3"/>
<path d="M246.937 88.2383H245.98V92.1516H246.937V88.2383Z" fill="#B5BBC3"/>
<path d="M248.832 88.2383H247.875V92.1516H248.832V88.2383Z" fill="#B5BBC3"/>
<path d="M250.727 88.2383H249.77V92.1516H250.727V88.2383Z" fill="#B5BBC3"/>
<path d="M252.623 88.2383H251.665V92.1516H252.623V88.2383Z" fill="#B5BBC3"/>
<path d="M243.146 94.3364H242.189V98.2497H243.146V94.3364Z" fill="#B5BBC3"/>
<path d="M245.041 94.3364H244.084V98.2497H245.041V94.3364Z" fill="#B5BBC3"/>
<path d="M246.937 94.3364H245.98V98.2497H246.937V94.3364Z" fill="#B5BBC3"/>
<path opacity="0.29" d="M248.832 94.3364H247.875V98.2497H248.832V94.3364Z" fill="#B5BBC3"/>
<path d="M250.727 94.3364H249.77V98.2497H250.727V94.3364Z" fill="#B5BBC3"/>
<path d="M252.623 94.3364H251.665V98.2497H252.623V94.3364Z" fill="#B5BBC3"/>
<path d="M224.666 88.1001H204.322V151.196H224.666V88.1001Z" fill="#B5BBC3"/>
<path d="M225.244 87.0156H203.744V88.7993H225.244V87.0156Z" fill="#B5BBC3"/>
<path d="M223.983 84.7334H205.006V93.2107H223.983V84.7334Z" fill="#B5BBC3"/>
<path d="M213.973 81.2651H206.459V90.5276H213.973V81.2651Z" fill="#B5BBC3"/>
<path d="M210.807 83.8749H206.459V78.999H209.578L210.807 83.8749Z" fill="#B5BBC3"/>
<path d="M208.634 74.9531H208.212V85.8128H208.634V74.9531Z" fill="#B5BBC3"/>
<path d="M208.423 74.9529C208.632 74.9529 208.801 74.7009 208.801 74.39C208.801 74.0792 208.632 73.8271 208.423 73.8271C208.214 73.8271 208.044 74.0792 208.044 74.39C208.044 74.7009 208.214 74.9529 208.423 74.9529Z" fill="#B5BBC3"/>
<path d="M295.98 103.022V72.0061H292.487V63.6973H291.239V51.5129H284.364V42.5588H283.753V51.5129H282.406V40.3037H281.794V51.5129H277.449V72.0061H275.204V103.022H273.28V159.514H297.332V103.022H295.98Z" fill="#B5BBC3"/>
<path d="M231.132 91.9775H230.814V116.952H231.132V91.9775Z" fill="#959DA9"/>
<path d="M232.168 93.8706H231.849V118.845H232.168V93.8706Z" fill="#959DA9"/>
<path opacity="0.5" d="M279.639 53.8164H278.685V57.6006H279.639V53.8164Z" fill="white"/>
<path opacity="0.5" d="M281.992 53.8164H281.038V57.6006H281.992V53.8164Z" fill="white"/>
<path opacity="0.5" d="M284.345 53.8164H283.392V57.6006H284.345V53.8164Z" fill="white"/>
<path opacity="0.5" d="M286.7 53.8164H285.747V57.6006H286.7V53.8164Z" fill="white"/>
<path opacity="0.5" d="M279.638 60.1177H278.685V63.9019H279.638V60.1177Z" fill="white"/>
<path opacity="0.5" d="M281.992 60.1177H281.038V63.9019H281.992V60.1177Z" fill="white"/>
<path opacity="0.5" d="M284.345 60.1177H283.392V63.9019H284.345V60.1177Z" fill="white"/>
<path opacity="0.5" d="M286.7 60.1177H285.747V63.9019H286.7V60.1177Z" fill="white"/>
<path opacity="0.5" d="M279.638 66.4204H278.685V70.2046H279.638V66.4204Z" fill="white"/>
<path opacity="0.5" d="M281.992 66.4204H281.038V70.2046H281.992V66.4204Z" fill="white"/>
<path opacity="0.5" d="M289.369 53.8164H288.416V57.6006H289.369V53.8164Z" fill="white"/>
<path opacity="0.4" d="M215.761 92.1514H215.155V95.6201H215.761V92.1514Z" fill="white"/>
<path opacity="0.4" d="M217.903 92.1514H217.296V95.6201H217.903V92.1514Z" fill="white"/>
<path opacity="0.4" d="M220.407 92.1514H219.8V95.6201H220.407V92.1514Z" fill="white"/>
<path opacity="0.4" d="M222.547 92.1514H221.94V95.6201H222.547V92.1514Z" fill="white"/>
<path opacity="0.4" d="M211.005 92.1514H210.399V95.6201H211.005V92.1514Z" fill="white"/>
<path opacity="0.4" d="M213.146 92.1514H212.54V95.6201H213.146V92.1514Z" fill="white"/>
<path d="M439.1 139.532L437.127 119.917H433.093V103.64H433.592V102.168H431.634V95.828H431.394V102.168H430.042V96.9735H429.803V102.168H421.645V103.64H422.201V136.666H412.888V121.873H407.583V85.5223H408.069V83.7386H407.009V81.4548H405.79V80.5979V77.9861V75.722H404.318V71.6743H404.141H403.965V75.722H403.172L402.692 77.9861H399.482V81.4548H391.08V83.7386H390.021V85.5223H390.507V109.172H383.476V132.412L375.676 127.272V104.716H376.935V103.059H374.72V98.5617H365.239V103.059H362.141V98.5617H360.55V103.059H358.957V98.5617H357.207V103.059H353.544V104.716H354.101V135.979H350.546V135.651H349.902V126.743H350.546V126.028H349.902V117.119H350.546V116.404H349.902V107.496H350.546V106.781H349.902V97.8716H350.546V97.1563H349.902V88.2488H350.546V87.5336H349.902V78.3142H351.005V77.5971H351.566V75.6414H341.092V73.4687H341.433V72.8395H335.732V73.4687H336.072V75.6414H333.477V77.5971H334.038V78.3142H335.141V87.5336H334.497V88.2488H335.141V97.1563H334.497V97.8716H335.141V106.781H334.497V107.496H335.141V116.404H334.497V117.119H335.141V126.028H334.497V126.743H335.141V135.651H334.497V136.366H335.141V143.646H331.567V115.514H317.183V135.979H314.848V72.2264H313.12V73.8667L309.933 75.0265V73.9617H308.205V75.6557L305.017 76.8155V75.593H303.29V77.4429L300.101 78.6028V77.5935H298.373V79.2302L295.185 80.39V79.5224H293.458V142.129H291.027V108.751H282.025V129.276H272.795V111.773H271.658V106.024H272.334V105.447H269.346V103.64H269.028V105.447H268.073V96.1704H267.834V105.447H266.59V106.024H267.322V111.773H261.231V125.125H255.3L252.204 142.129H245.99V86.6104H237.763V84.6224H238.23V83.925H231.999V84.6224H232.489V86.6104V89.8102V127.832H228.61V113.466H229.988V112.166H220.227V103.486H218.365V101.702H214.209V103.486H210.827V134.475H199.731V111.492H190.389V129.646H182.281V141.26H176.436V126.659H168.748V139.109H161.788V160.283H168.748H171.1H174.944H176.436H182.281H190.389H193.114H194.572H199.731H210.827H214.209H218.365H220.227H227.509H228.61H232.489H238.994H242.2H245.99H261.231H264.75H270.692H272.795H282.182H284.705H293.458H294.322H295.185H298.373H300.101H303.29H304.733H305.017H308.205H309.933H312.673H313.12H313.985H314.848H317.183H329.072H330.77H331.567H335.141H341.433H347.194H349.902H354.101H364.531H375.56H375.676H383.476H387.837H390.507H392.192H405.245H407.583H410.379H412.888H422.201H429.128H430.546H433.093H448.59V139.532H439.1Z" fill="#656F82"/>
<path opacity="0.33" d="M297.353 83.875H296.206V88.1988H297.353V83.875Z" fill="white"/>
<path opacity="0.33" d="M297.353 92.1445H296.207V96.4683H297.353V92.1445Z" fill="white"/>
<path opacity="0.33" d="M302.268 83.875H301.122V88.1988H302.268V83.875Z" fill="white"/>
<path opacity="0.33" d="M302.268 92.1445H301.122V96.4683H302.268V92.1445Z" fill="white"/>
<path opacity="0.33" d="M307.184 83.875H306.037V88.1988H307.184V83.875Z" fill="white"/>
<path opacity="0.33" d="M307.184 92.1445H306.037V96.4683H307.184V92.1445Z" fill="white"/>
<path opacity="0.33" d="M312.1 83.875H310.954V88.1988H312.1V83.875Z" fill="white"/>
<path opacity="0.33" d="M312.1 92.1445H310.954V96.4683H312.1V92.1445Z" fill="white"/>
<path opacity="0.33" d="M337.237 80.6372H336.47V85.3536H337.237V80.6372Z" fill="white"/>
<path opacity="0.33" d="M341.05 80.6372H340.283V85.3536H341.05V80.6372Z" fill="white"/>
<path opacity="0.33" d="M344.863 80.6372H344.097V85.3536H344.863V80.6372Z" fill="white"/>
<path opacity="0.33" d="M348.678 80.6372H347.911V85.3536H348.678V80.6372Z" fill="white"/>
<path opacity="0.33" d="M337.237 90.3442H336.47V95.0606H337.237V90.3442Z" fill="white"/>
<path opacity="0.33" d="M341.05 90.3442H340.283V95.0606H341.05V90.3442Z" fill="white"/>
<path opacity="0.33" d="M344.863 90.3442H344.097V95.0606H344.863V90.3442Z" fill="white"/>
<path opacity="0.33" d="M348.678 90.3442H347.911V95.0606H348.678V90.3442Z" fill="white"/>
<path d="M234.842 94.6196H233.885V98.5329H234.842V94.6196Z" fill="#B5BAC3"/>
<path opacity="0.29" d="M236.737 94.6196H235.78V98.5329H236.737V94.6196Z" fill="#B5BAC3"/>
<path opacity="0.29" d="M238.632 94.6196H237.675V98.5329H238.632V94.6196Z" fill="#B5BAC3"/>
<path d="M240.528 94.6196H239.571V98.5329H240.528V94.6196Z" fill="#B5BAC3"/>
<path d="M242.423 94.6196H241.466V98.5329H242.423V94.6196Z" fill="#B5BAC3"/>
<path d="M244.318 94.6196H243.361V98.5329H244.318V94.6196Z" fill="#B5BAC3"/>
</g>
<defs>
<clipPath id="clip0">
<rect width="360" height="96" fill="white"/>
</clipPath>
</defs>
</svg>
