<svg width="138" height="216" viewBox="0 0 138 216" fill="none" xmlns="http://www.w3.org/2000/svg">
<path d="M26.7072 178.582C37.1686 173.878 111.938 193.305 111.938 193.305C111.938 193.305 92.396 107.603 95.0163 74.9063C97.6373 42.21 41.4312 56.9072 41.4312 56.9072L26.7063 178.583L26.7072 178.582Z" fill="#0443BB"/>
<path d="M85.7793 212.023C85.7793 212.023 96.1745 237.297 81.8459 293.573H73.3754C73.3754 293.573 70.7649 219.789 69.0237 212.023C67.6646 205.889 65.0903 184.885 64.2448 166.96V166.886C64.1715 165.205 64.1089 163.562 64.0604 161.955C63.5811 162.065 63.0799 162.126 62.5636 162.176C62.1479 162.2 61.7305 162.213 61.2892 162.188C61.2036 162.188 61.1065 162.176 61.0086 162.176C61.5354 169.978 61.7428 178.738 61.7428 186.811C61.7428 198.209 61.3272 208.208 60.8374 212.11C59.8445 219.839 65.2006 293.722 65.2006 293.722L56.7063 293.44C36.9474 236.586 44.057 211.546 44.057 211.546C44.057 211.546 25.99 160.373 30.047 142.313C34.0907 124.266 43.5549 110.893 43.5549 110.893L59.33 113.469L59.465 113.187L60.7385 113.432H60.923V113.469L77.2373 116.684C77.2373 116.684 80.9748 122.892 85.2047 132.78C85.3989 133.259 85.6089 133.737 85.8172 134.228C87.4834 138.253 89.2123 142.828 90.7938 147.797C96.5902 166.004 85.7793 212.024 85.7793 212.024V212.023Z" fill="#D8E0E2"/>
<path d="M60.286 153.302C60.8631 156.223 61.6115 159.204 62.5655 162.173C62.1499 162.198 61.7324 162.21 61.2912 162.185C54.7349 141.316 57.9587 120.128 58.0073 119.907L59.2075 120.103C59.1846 120.287 56.9288 135.133 60.053 152.1C60.4095 151.99 60.8631 151.769 61.2559 151.266C61.8798 150.456 62.4314 148.702 61.4765 144.985C59.4052 136.924 61.3291 121.061 61.4147 120.398L62.6282 120.546C62.6158 120.705 60.654 136.851 62.6635 144.678C63.5345 148.064 63.3757 150.543 62.1975 152.052C61.585 152.824 60.8376 153.156 60.2851 153.303L60.286 153.302Z" fill="#C0CDD0"/>
<path d="M85.8108 134.201C76.298 132.017 71.3947 120.742 71.1882 120.227L72.3143 119.735C72.3638 119.858 76.8505 130.176 85.1983 132.752C85.3925 133.231 85.6025 133.709 85.8108 134.2V134.201Z" fill="#C0CDD0"/>
<path d="M74.3362 0.26751C89.5818 2.38137 93.8497 13.9153 93.5434 24.4846C93.2372 35.0539 92.0114 90.8031 92.0114 90.8031C92.0114 90.8031 63.1784 99.83 53.5395 76.7966C43.9015 53.7633 42.8292 40.8919 49.2469 32.8278C50.5601 31.1777 51.2829 26.1974 52.0216 19.7534C53.5192 6.67799 60.7215 -1.62021 74.3362 0.266626V0.26751Z" fill="#2A2A2A"/>
<path d="M117.653 140.396C117.857 146.527 113.253 162.359 111.933 159.618C107.526 150.469 117.653 140.396 117.653 140.396Z" fill="#0443BB"/>
<path d="M4.88514 90.8365C4.06881 87.8429 13.9019 72.6307 16.6456 74.7304C16.6456 74.7304 15.7128 96.8398 12.6487 97.4537C9.58459 98.0668 4.88514 90.8374 4.88514 90.8374V90.8365Z" fill="#0443BB"/>
<path d="M38.9847 42.959L10.353 96.9097C10.353 96.9097 11.1164 107.499 16.3259 108.689C21.5355 109.879 41.913 88.4454 41.913 88.4454L38.9847 42.959Z" fill="#0E51D0"/>
<path d="M101.063 130.762C103.477 139.331 116.072 159.068 123.865 166.516L127.887 163.112C127.887 163.112 116.162 140.246 114.607 131.829C113.052 123.412 108.931 118.56 103.056 118.841C97.182 119.123 100.554 128.96 101.063 130.762Z" fill="#FFCBB4"/>
<path d="M9.08059 93.3647C6.16561 84.9544 5.21955 61.5544 7.35791 50.9824L12.6019 51.4718C12.6019 51.4718 16.049 76.9415 19.5826 84.7362C23.1163 92.5318 22.5073 98.8724 17.5281 102.003C12.548 105.135 9.69483 95.135 9.08059 93.3647Z" fill="#FFCBB4"/>
<path d="M99.6407 51.3701C99.6407 51.3701 106.127 70.6555 107.092 103.576C107.092 103.576 108.669 105.213 108.465 106.44C108.261 107.667 110.1 110.253 109.691 110.8C109.283 111.347 117.658 140.385 117.658 140.385C117.658 140.385 110.714 146.928 111.939 159.608L98.0468 130.773C98.0468 130.773 93.8813 58.6666 99.6416 51.371L99.6407 51.3701Z" fill="#0E51D0"/>
<path d="M41.9189 117.124C41.9189 117.124 46.3368 122.172 58.6056 123.482C70.8762 124.792 78.4721 119.759 77.7378 116.371C77.0053 112.983 44.0951 112.445 44.0951 112.445L41.918 117.124H41.9189Z" fill="#383A74"/>
<path d="M76.6996 117.257C76.6996 117.257 58.7181 123.6 41.7543 110.779C41.7543 110.779 38.6036 45.9636 44.5977 41.6201C47.2206 39.7183 52.3931 41.2394 57.382 43.5582C63.8173 46.5519 69.9703 50.8582 69.9703 50.8582C69.9703 50.8582 81.1369 49.2753 89.9374 50.2452C95.5388 50.8468 100.172 52.4907 100.38 56.2078C100.932 65.7895 76.6996 117.257 76.6996 117.257Z" fill="#FFCBB4"/>
<path d="M90.4101 50.398C86.6347 50.0058 85.9357 52.8634 82.1611 54.2379C78.3733 55.6239 73.8381 56.6918 72.1224 56.8508C70.4068 57.0098 69.4996 59.1449 69.4996 59.1449C69.4996 59.1449 68.8871 56.2616 67.9551 56.0161C67.0479 55.7829 59.0443 47.7223 57.3772 43.5635C63.8126 46.5572 69.9655 50.8635 69.9655 50.8635C69.9655 50.8635 81.1321 49.2805 89.9327 50.2504C90.2389 50.3485 90.411 50.398 90.411 50.398H90.4101Z" fill="#FFB097"/>
<path d="M68.5246 29.4426C68.5246 29.4426 69.956 46.7483 65.1445 49.2226C65.1445 49.2226 68.6993 55.7815 78.2279 51.7896C78.2279 51.7896 76.6182 42.8898 82.9212 32.3232C87.1414 25.2467 68.5237 29.4435 68.5237 29.4435L68.5246 29.4426Z" fill="#FFB097"/>
<path d="M85.8839 23.4966C85.8839 23.4966 89.4635 19.3334 90.2842 23.8191C91.2338 29.0176 86.6412 31.4892 85.5848 29.893C84.5293 28.2977 85.8839 23.4958 85.8839 23.4958V23.4966Z" fill="#FFB097"/>
<path d="M58.7824 25.8314C58.7824 25.8314 54.6151 22.2574 54.4827 26.8164C54.3301 32.098 59.2448 33.8461 60.0462 32.1094C60.8493 30.3719 58.7824 25.8314 58.7824 25.8314Z" fill="#FFB097"/>
<path d="M74.174 43.4622C82.7672 42.8068 87.1904 36.8185 85.9081 19.9677C85.2471 11.2764 80.4232 6.2811 70.7984 7.01428C61.1727 7.74834 57.5234 13.3877 58.1853 22.0816C59.563 40.1876 65.2967 44.1398 74.174 43.4622Z" fill="#FFCBB4"/>
<path d="M61.4983 27.8874C61.4127 28.7636 62.2317 29.5595 63.326 29.6664C64.4204 29.7724 65.377 29.1479 65.4617 28.2716C65.5473 27.3962 64.7284 26.5994 63.634 26.4943C62.5388 26.3874 61.5831 27.012 61.4983 27.8882V27.8874Z" fill="#FD6444"/>
<path d="M79.2052 26.9854C79.3288 27.8572 80.3119 28.4376 81.4001 28.283C82.4882 28.1284 83.2719 27.2963 83.1483 26.4245C83.0248 25.5535 82.0416 24.9722 80.9535 25.1277C79.8653 25.2823 79.0816 26.1144 79.2052 26.9854Z" fill="#FD6444"/>
<path d="M64.5416 18.8165C64.7155 18.8978 64.9291 18.8545 65.0561 18.699C66.1505 17.359 68.25 17.2512 68.2712 17.2503C68.5085 17.2406 68.693 17.0383 68.6833 16.8016C68.6736 16.5631 68.4741 16.3793 68.2341 16.389C68.1326 16.3943 65.726 16.5189 64.3898 18.1531C64.2407 18.3377 64.2672 18.6098 64.4516 18.7608C64.4799 18.7838 64.5107 18.8024 64.5425 18.8174L64.5416 18.8165Z" fill="#2A2A2A"/>
<path d="M76.9957 16.4993C77.0645 16.5311 77.1413 16.5443 77.2225 16.5364C77.2437 16.5346 79.3379 16.3261 80.6211 17.4824C80.7976 17.6432 81.0694 17.6273 81.2291 17.4506C81.3871 17.2722 81.3739 17.0019 81.1974 16.8402C79.63 15.4242 77.2322 15.6671 77.1307 15.6795C76.8942 15.7042 76.7248 15.9162 76.7495 16.153C76.7653 16.3085 76.8633 16.4365 76.9957 16.4993Z" fill="#2A2A2A"/>
<path d="M65.8441 23.3671C65.9262 24.4342 66.4734 25.2636 67.0646 25.2186C67.6577 25.1735 68.0716 24.2716 67.9913 23.2028C67.9101 22.1348 67.3638 21.3053 66.7708 21.3504C66.1777 21.3963 65.7629 22.2991 65.8441 23.3671Z" fill="#2A2A2A"/>
<path d="M77.9633 22.4627C78.0436 23.5298 78.5908 24.3593 79.1838 24.3142C79.776 24.2692 80.1917 23.3673 80.1096 22.2984C80.0284 21.2313 79.4821 20.4019 78.889 20.446C78.2969 20.492 77.8812 21.3947 77.9642 22.4627H77.9633Z" fill="#2A2A2A"/>
<path d="M68.6912 22.584C68.6912 22.584 67.708 20.0126 66.6905 20.2802C65.6721 20.5479 65.0605 22.8605 65.0605 22.8605L63.4746 22.1688L65.0137 22.2519C65.0137 22.2519 65.6306 19.8394 66.6499 19.7573C68.1034 19.6407 68.6903 22.584 68.6903 22.584H68.6912Z" fill="#2A2A2A"/>
<path d="M77.0593 22.2973C77.0593 22.2973 77.6418 19.6066 78.6885 19.717C79.7351 19.8266 80.69 22.02 80.69 22.02L82.1541 21.0951L80.6441 21.4113C80.6441 21.4113 79.6707 19.1208 78.6505 19.1941C77.1952 19.2983 77.0602 22.2973 77.0602 22.2973H77.0593Z" fill="#2A2A2A"/>
<path d="M72.3795 28.843C72.5684 28.9314 72.7775 28.9976 73.0061 29.0418L73.18 28.1275C72.4016 27.9791 72.1995 27.5207 72.166 27.1629C72.1209 26.6559 72.3919 26.1594 72.6646 26.0526C72.8252 25.9898 73.0026 26.0888 73.1976 26.3432L73.9372 25.7787C73.2903 24.928 72.5958 25.08 72.3275 25.186C71.6364 25.4545 71.159 26.36 71.2402 27.2468C71.3064 27.9668 71.7194 28.5339 72.3786 28.8422L72.3795 28.843Z" fill="#FD6444"/>
<path d="M77 34.4855C77 34.4855 76.2452 31.1912 71.7168 34.4142C67.1884 37.6372 72.8389 37.1593 74.714 36.5835C76.5898 36.006 77 34.4855 77 34.4855Z" fill="#2A2A2A"/>
<path d="M72.1275 8.28076C72.1275 8.28076 61.6846 27.0794 56.1732 24.5124C56.1732 24.5124 54.7082 4.39844 70.6572 4.39844C86.6062 4.39844 89.7656 13.3839 89.7171 22.2854C89.7171 22.2854 87.4887 25.5768 85.5154 25.1095C85.5154 25.1095 87.9917 8.65795 72.1266 8.27988L72.1275 8.28076Z" fill="#2A2A2A"/>
<path d="M137.302 166.33C130.686 165.519 130.063 159.899 124.616 161.394C123.492 161.704 122.811 162.353 122.401 163.08C121.62 164.47 121.852 166.199 122.774 167.5C124.889 170.49 126.913 174.87 127.738 177.161C128.695 179.78 129.303 178.498 129.303 178.498C129.372 178.747 129.423 178.987 129.476 179.228C129.89 181.048 129.923 182.452 130.891 181.353C131.992 180.119 131.054 174.896 131.054 174.896C134.194 182.028 132.857 183.582 133.963 182.573C135.477 181.196 133.69 174.623 133.636 174.427C136.238 178.359 136.533 180.933 137.248 179.678C137.972 178.406 134.301 170.882 132.911 168.128C132.6 167.507 132.397 167.126 132.397 167.126C137.742 168.144 137.302 166.329 137.302 166.329V166.33Z" fill="#FFCBB4"/>
<path d="M132.915 168.125C132.604 167.504 132.401 167.122 132.401 167.122C132.401 167.122 130.28 167.931 128.048 166.016C128.048 166.016 129.359 169.045 132.915 168.124V168.125Z" fill="#FFB097"/>
<path d="M100.387 63.3173C98.1432 76.7637 90.9727 126.759 60.2318 120.318C60.0968 120.294 59.9494 120.257 59.8135 120.233C59.3978 120.147 58.9936 120.061 58.6 119.976C29.8218 113.767 38.3893 110.774 38.3893 110.774C38.3893 110.774 26.7021 38.731 49.7139 40.9394C49.7139 40.9394 66.6407 62.1522 67.021 70.5935C67.059 71.0599 67.021 71.5016 66.9354 71.8815C67.0087 71.6483 67.389 70.6297 68.8002 68.8268C71.4354 65.4648 77.7349 59.3555 92.5286 50.6201C92.5286 50.6201 102.628 49.8595 100.387 63.3182V63.3173Z" fill="#D2D4FF"/>
<path d="M90.4099 49.1709C90.4099 49.1709 81.1072 77.9028 81.1752 97.5335C81.2414 117.163 107.087 196.994 107.087 196.994C107.087 196.994 110.095 195.767 111.933 193.313C111.933 193.313 100.479 106.22 100.383 97.0194C100.289 87.8175 102.357 56.7801 99.6358 51.3563C99.6358 51.3563 98.3006 49.6223 90.4099 49.1709Z" fill="#1C67F6"/>
<path d="M52.6546 41.706C52.6546 41.706 53.5742 76.7432 52.6546 83.8639C51.7359 90.9855 44.5478 130.537 40.587 144.074C36.628 157.611 31.6541 185.364 31.6541 185.364L26.7084 178.616C26.7084 178.616 23.6011 151.333 26.7084 137.531C29.8158 123.729 33.3909 113.842 33.7475 110.811C34.1058 107.78 31.6197 63.4276 38.9914 42.9701C38.9914 42.9701 45.4224 38.5877 52.6546 41.706Z" fill="#1C67F6"/>
<path d="M68.8037 68.8389C68.2892 71.1329 67.1242 73.8325 65.9231 76.6539C64.4767 80.0159 62.9816 83.4875 62.626 86.2603C62.4283 87.8557 62.4424 90.3087 62.4548 93.4128C62.4795 100.517 62.528 110.871 59.8187 120.245C59.403 120.159 58.9988 120.073 58.6052 119.988C61.2899 110.762 61.2546 100.468 61.2299 93.4137C61.2175 90.2725 61.2042 87.7823 61.4134 86.1013C61.7938 83.1695 63.3135 79.6113 64.7952 76.1636C65.6283 74.2132 66.4509 72.3113 67.0263 70.6065C67.0642 71.0729 67.0263 71.5145 66.9407 71.8944C67.0139 71.6612 67.3943 70.6427 68.8054 68.8398L68.8037 68.8389Z" fill="#0E51D0"/>
<path d="M16.6516 74.7051C16.6516 74.7051 9.18106 95.2368 4.89111 90.8112C4.89111 90.8112 10.2039 107.856 16.3322 108.674C22.4604 109.493 25.3268 84.9555 25.3268 84.9555C25.3268 84.9555 20.0096 76.0169 19.3963 76.8057C18.7838 77.5945 18.5791 79.5379 18.5791 79.5379L16.6525 74.7051H16.6516Z" fill="#0E51D0"/>
<path d="M60.7385 123.696C65.9648 125.715 73.626 150.184 72.86 168.314C72.86 168.314 73.0136 170.274 74.8519 168.314C74.8519 168.314 71.8601 124.27 60.8691 120.468L60.7394 123.697L60.7385 123.696Z" fill="#383A74"/>
<path d="M62.0182 120.442C62.0182 120.442 62.7242 124.769 58.5993 124.463C54.4761 124.156 54.1672 120.942 56.0073 119.405C57.8474 117.868 62.0182 120.443 62.0182 120.443V120.442Z" fill="#545798"/>
<path d="M19.0375 40.7252C19.0375 40.7252 19.0375 40.7252 16.2673 46.9458C13.5094 53.1787 12.6516 52.3687 9.07206 53.1902C5.72553 53.9631 3.64189 48.0005 3.45833 45.3133C3.28712 43.0431 -0.341821 38.5407 0.0261917 36.6274C0.173573 35.8544 0.675724 36.3085 1.6315 37.8667C2.75936 39.6952 4.4141 40.9832 4.4141 40.9832C5.60286 38.9099 0.871652 32.7017 2.47784 30.6771C3.26241 29.6957 5.44401 38.7986 6.87811 39.0689C6.87811 39.0689 7.38026 38.357 6.66983 33.8059C6.26564 31.193 5.82437 28.5058 6.52245 28.0032C7.79681 27.0951 7.69885 32.7141 9.96694 38.6767C9.96694 38.6767 10.0278 35.7935 9.90604 33.1196C9.78337 30.678 9.41536 28.4087 10.5062 28.4572C11.401 28.4943 11.4866 32.3095 11.634 34.7387C11.9156 39.2659 13.1052 42.5175 13.8403 44.1491C14.1836 44.9344 14.4405 45.339 14.4405 45.339C17.787 39.2288 19.0375 40.7261 19.0375 40.7261V40.7252Z" fill="#FFCBB4"/>
<path d="M14.4399 45.3569C14.4399 45.3569 11.584 46.2773 10.8118 48.4362C10.8118 48.4362 10.1993 45.0132 13.8397 44.167C14.183 44.9523 14.4399 45.3569 14.4399 45.3569Z" fill="#FFB097"/>
</svg>
