<svg width="360" height="205" viewBox="0 0 360 205" fill="none" xmlns="http://www.w3.org/2000/svg">
<rect width="360" height="205" fill="#ECEFF0"/>
<path opacity="0.8" d="M15.0529 178.865C15.0529 178.216 15.1335 177.698 15.2946 177.312C15.4558 176.927 15.7731 176.504 16.2468 176.045C16.7253 175.582 17.028 175.252 17.155 175.057C17.3503 174.759 17.4479 174.437 17.4479 174.09C17.4479 173.631 17.3332 173.282 17.1037 173.042C16.8791 172.798 16.5471 172.676 16.1076 172.676C15.6877 172.676 15.3483 172.796 15.0896 173.035C14.8356 173.27 14.7087 173.589 14.7087 173.995H12.9289C12.9387 173.13 13.2316 172.447 13.8078 171.944C14.3889 171.441 15.1555 171.189 16.1076 171.189C17.0891 171.189 17.8532 171.438 18.4001 171.937C18.9519 172.435 19.2277 173.13 19.2277 174.024C19.2277 174.82 18.8566 175.604 18.1145 176.375L17.2136 177.261C16.8913 177.627 16.7253 178.162 16.7155 178.865H15.0529ZM14.9284 181.143C14.9284 180.855 15.0187 180.623 15.1994 180.447C15.3801 180.267 15.6242 180.176 15.9318 180.176C16.2443 180.176 16.4909 180.269 16.6716 180.455C16.8522 180.635 16.9426 180.865 16.9426 181.143C16.9426 181.412 16.8547 181.636 16.6789 181.817C16.5031 181.998 16.2541 182.088 15.9318 182.088C15.6096 182.088 15.3605 181.998 15.1848 181.817C15.0139 181.636 14.9284 181.412 14.9284 181.143ZM25.5521 182H23.7796V173.438L21.1648 174.332V172.83L25.325 171.299H25.5521V182ZM36.4285 182H29.2581V180.777L32.8104 176.902C33.323 176.331 33.6868 175.855 33.9017 175.474C34.1214 175.088 34.2312 174.703 34.2312 174.317C34.2312 173.809 34.0872 173.399 33.7991 173.086C33.5159 172.774 33.1326 172.618 32.6492 172.618C32.073 172.618 31.6263 172.793 31.3089 173.145C30.9915 173.497 30.8328 173.978 30.8328 174.588H29.053C29.053 173.938 29.1995 173.355 29.4925 172.837C29.7903 172.315 30.2127 171.91 30.7596 171.622C31.3113 171.333 31.9461 171.189 32.6639 171.189C33.699 171.189 34.5145 171.451 35.1102 171.973C35.7107 172.491 36.011 173.208 36.011 174.126C36.011 174.659 35.8597 175.218 35.5569 175.804C35.2591 176.385 34.7684 177.046 34.0848 177.789L31.4773 180.579H36.4285V182ZM39.8416 175.855H40.9256C41.4725 175.85 41.9046 175.708 42.222 175.43C42.5442 175.152 42.7054 174.749 42.7054 174.222C42.7054 173.714 42.5711 173.321 42.3025 173.042C42.0389 172.759 41.6336 172.618 41.0867 172.618C40.6082 172.618 40.2151 172.757 39.9075 173.035C39.5999 173.309 39.4461 173.667 39.4461 174.112H37.6663C37.6663 173.565 37.8104 173.067 38.0984 172.618C38.3914 172.168 38.7967 171.819 39.3143 171.57C39.8367 171.316 40.4202 171.189 41.0647 171.189C42.1292 171.189 42.9642 171.458 43.5696 171.995C44.18 172.527 44.4852 173.27 44.4852 174.222C44.4852 174.7 44.3313 175.152 44.0237 175.577C43.721 175.997 43.3279 176.314 42.8445 176.529C43.4305 176.729 43.8748 177.044 44.1775 177.474C44.4852 177.903 44.639 178.416 44.639 179.012C44.639 179.969 44.3094 180.73 43.6502 181.297C42.9959 181.863 42.1341 182.146 41.0647 182.146C40.0394 182.146 39.1995 181.873 38.5452 181.326C37.8909 180.779 37.5638 180.052 37.5638 179.144H39.3436C39.3436 179.612 39.4998 179.993 39.8123 180.286C40.1297 180.579 40.5545 180.726 41.0867 180.726C41.6385 180.726 42.073 180.579 42.3904 180.286C42.7078 179.993 42.8665 179.568 42.8665 179.012C42.8665 178.45 42.7005 178.018 42.3685 177.715C42.0364 177.413 41.5433 177.261 40.889 177.261H39.8416V175.855Z" fill="#061D28"/>
<path opacity="0.8" d="M285.165 179.96C285.165 179.623 285.278 179.35 285.502 179.14C285.732 178.93 286.017 178.825 286.359 178.825C286.706 178.825 286.991 178.93 287.216 179.14C287.446 179.35 287.56 179.623 287.56 179.96C287.56 180.292 287.448 180.563 287.223 180.773C286.999 180.978 286.711 181.081 286.359 181.081C286.012 181.081 285.727 180.978 285.502 180.773C285.278 180.563 285.165 180.292 285.165 179.96Z" fill="#061D28"/>
<path d="M40.9253 80.7324H34.0747L32.5361 85H30.3125L36.5566 68.6484H38.4434L44.6987 85H42.4863L40.9253 80.7324ZM34.7261 78.958H40.2852L37.5 71.3101L34.7261 78.958Z" fill="#061D28"/>
<path d="M72.8877 77.7114C71.0384 77.1799 69.6908 76.5285 68.8447 75.7573C68.0062 74.9787 67.5869 74.0203 67.5869 72.8823C67.5869 71.5946 68.0998 70.5314 69.1255 69.6929C70.1587 68.8468 71.4989 68.4238 73.146 68.4238C74.269 68.4238 75.2686 68.641 76.1445 69.0752C77.028 69.5094 77.7093 70.1084 78.1885 70.8721C78.6751 71.6357 78.9185 72.4705 78.9185 73.3765H76.751C76.751 72.3882 76.4365 71.6133 75.8076 71.0518C75.1787 70.4827 74.2915 70.1982 73.146 70.1982C72.0828 70.1982 71.2518 70.4341 70.6528 70.9058C70.0614 71.37 69.7656 72.0176 69.7656 72.8486C69.7656 73.515 70.0464 74.0802 70.6079 74.5444C71.1769 75.0011 72.139 75.4204 73.4941 75.8022C74.8568 76.1841 75.9199 76.6071 76.6836 77.0713C77.4548 77.528 78.0238 78.0633 78.3906 78.6772C78.765 79.2912 78.9521 80.0137 78.9521 80.8447C78.9521 82.1699 78.4355 83.2331 77.4023 84.0342C76.3691 84.8278 74.9878 85.2246 73.2583 85.2246C72.1353 85.2246 71.0871 85.0112 70.1138 84.5845C69.1405 84.1502 68.388 83.5588 67.8564 82.8101C67.3324 82.0614 67.0703 81.2116 67.0703 80.2607H69.2378C69.2378 81.249 69.6009 82.0314 70.3271 82.6079C71.0609 83.1769 72.0379 83.4614 73.2583 83.4614C74.3963 83.4614 75.2686 83.2293 75.875 82.7651C76.4814 82.3009 76.7847 81.6683 76.7847 80.8672C76.7847 80.0661 76.5039 79.4484 75.9424 79.0142C75.3809 78.5724 74.3626 78.1382 72.8877 77.7114Z" fill="#061D28"/>
<path d="M69.6309 134.237H78.9858V136H67.0815V134.383L76.0435 121.423H67.2275V119.648H78.6265V121.232L69.6309 134.237Z" fill="#061D28"/>
<path opacity="0.8" d="M72.8457 185.832L71.8203 185.129C72.4323 184.276 72.7513 183.397 72.7773 182.492V180.861H74.5449V182.277C74.5449 182.935 74.3822 183.592 74.0566 184.25C73.7376 184.908 73.334 185.435 72.8457 185.832Z" fill="#061D28"/>
<path d="M108.522 125.915L112.442 119.648H114.98L109.814 127.757L115.104 136H112.543L108.522 129.621L104.479 136H101.93L107.231 127.757L102.054 119.648H104.581L108.522 125.915Z" fill="#061D28"/>
<path d="M149.935 130.812C149.733 132.541 149.093 133.877 148.015 134.821C146.944 135.757 145.518 136.225 143.736 136.225C141.804 136.225 140.254 135.532 139.086 134.147C137.926 132.762 137.346 130.909 137.346 128.588V127.016C137.346 125.496 137.615 124.159 138.154 123.006C138.701 121.853 139.472 120.97 140.468 120.356C141.464 119.735 142.617 119.424 143.927 119.424C145.664 119.424 147.056 119.91 148.104 120.884C149.153 121.85 149.763 123.19 149.935 124.904H147.768C147.58 123.602 147.172 122.658 146.543 122.074C145.922 121.49 145.05 121.198 143.927 121.198C142.549 121.198 141.467 121.707 140.681 122.726C139.903 123.744 139.513 125.193 139.513 127.072V128.655C139.513 130.43 139.884 131.841 140.625 132.889C141.366 133.937 142.403 134.461 143.736 134.461C144.934 134.461 145.851 134.192 146.487 133.653C147.131 133.106 147.558 132.159 147.768 130.812H149.935Z" fill="#061D28"/>
<path d="M178.989 133.136L183.661 119.648H186.019L179.955 136H178.045L171.992 119.648H174.339L178.989 133.136Z" fill="#061D28"/>
<path d="M209.733 136V119.648H215.079C216.853 119.648 218.186 120.015 219.077 120.749C219.975 121.483 220.424 122.568 220.424 124.006C220.424 124.77 220.207 125.447 219.773 126.039C219.339 126.623 218.747 127.076 217.999 127.397C218.882 127.645 219.578 128.116 220.087 128.812C220.604 129.501 220.862 130.325 220.862 131.283C220.862 132.751 220.387 133.904 219.436 134.742C218.485 135.581 217.141 136 215.404 136H209.733ZM211.889 128.352V134.237H215.449C216.452 134.237 217.242 133.979 217.819 133.462C218.403 132.938 218.695 132.219 218.695 131.306C218.695 129.337 217.624 128.352 215.483 128.352H211.889ZM211.889 126.623H215.146C216.089 126.623 216.842 126.387 217.403 125.915C217.972 125.443 218.257 124.803 218.257 123.995C218.257 123.096 217.995 122.445 217.471 122.041C216.947 121.629 216.149 121.423 215.079 121.423H211.889V126.623Z" fill="#061D28"/>
<path d="M281.143 119.648L286.489 132.99L291.834 119.648H294.631V136H292.475V129.632L292.677 122.759L287.309 136H285.658L280.301 122.793L280.514 129.632V136H278.358V119.648H281.143Z" fill="#061D28"/>
<path d="M257.267 136H255.099L246.867 123.399V136H244.7V119.648H246.867L255.122 132.305V119.648H257.267V136Z" fill="#061D28"/>
<path d="M102.351 85V68.6484H106.967C108.389 68.6484 109.647 68.9629 110.74 69.5918C111.833 70.2207 112.676 71.1154 113.267 72.2759C113.866 73.4364 114.169 74.769 114.177 76.2739V77.3184C114.177 78.8607 113.877 80.2121 113.278 81.3726C112.687 82.533 111.837 83.424 110.729 84.0454C109.628 84.6668 108.344 84.985 106.877 85H102.351ZM104.507 70.4229V83.2368H106.776C108.438 83.2368 109.729 82.7202 110.65 81.687C111.579 80.6538 112.043 79.1826 112.043 77.2734V76.3188C112.043 74.4621 111.605 73.0208 110.729 71.9951C109.861 70.9619 108.625 70.4378 107.023 70.4229H104.507Z" fill="#061D28"/>
<path d="M148.269 77.7788H141.407V85H139.25V68.6484H149.38V70.4229H141.407V76.0156H148.269V77.7788Z" fill="#061D28"/>
<path d="M185.132 82.855C184.578 83.6486 183.803 84.2438 182.807 84.6406C181.819 85.0299 180.666 85.2246 179.348 85.2246C178.015 85.2246 176.833 84.9139 175.799 84.2925C174.766 83.6636 173.965 82.7726 173.396 81.6196C172.834 80.4666 172.546 79.1302 172.531 77.6104V76.1841C172.531 73.7209 173.104 71.8117 174.25 70.4565C175.403 69.1014 177.02 68.4238 179.101 68.4238C180.808 68.4238 182.182 68.8618 183.223 69.7378C184.263 70.6063 184.9 71.8416 185.132 73.4438H182.976C182.571 71.2801 181.284 70.1982 179.112 70.1982C177.667 70.1982 176.57 70.7074 175.822 71.7256C175.081 72.7363 174.706 74.2038 174.699 76.1279V77.4644C174.699 79.2987 175.118 80.7586 175.957 81.8442C176.795 82.9224 177.929 83.4614 179.359 83.4614C180.168 83.4614 180.875 83.3716 181.482 83.1919C182.088 83.0122 182.59 82.709 182.987 82.2822V78.6099H179.202V76.8579H185.132V82.855Z" fill="#061D28"/>
<path d="M221.443 85H219.276V77.4419H211.033V85H208.876V68.6484H211.033V75.6787H219.276V68.6484H221.443V85Z" fill="#061D28"/>
<path d="M254.962 68.6484H257.129V80.2271C257.129 81.7918 256.658 83.016 255.714 83.8994C254.778 84.7829 253.528 85.2246 251.963 85.2246C250.339 85.2246 249.073 84.8091 248.167 83.978C247.262 83.147 246.809 81.9827 246.809 80.4854H248.965C248.965 81.4212 249.219 82.1512 249.729 82.6753C250.245 83.1994 250.99 83.4614 251.963 83.4614C252.854 83.4614 253.573 83.1807 254.12 82.6191C254.674 82.0576 254.954 81.2715 254.962 80.2607V68.6484Z" fill="#061D28"/>
<path d="M285.343 77.397L283.344 79.4746V85H281.188V68.6484H283.344V76.7344L290.61 68.6484H293.216L286.781 75.8696L293.721 85H291.138L285.343 77.397Z" fill="#061D28"/>
<path d="M320.377 83.2368H328.126V85H318.21V68.6484H320.377V83.2368Z" fill="#061D28"/>
<path d="M26.48 27.3521C26.48 28.9318 26.2292 30.2944 25.7275 31.4399C25.2259 32.578 24.5221 33.4689 23.6162 34.1128L26.5361 36.4038L25.0649 37.7627L21.6172 35.0225C21.0781 35.1572 20.5091 35.2246 19.9102 35.2246C18.6224 35.2246 17.4806 34.9102 16.4849 34.2812C15.4891 33.6449 14.7142 32.7427 14.1602 31.5747C13.6136 30.3993 13.3328 29.0404 13.3179 27.498V26.3188C13.3179 24.7466 13.5911 23.3577 14.1377 22.1523C14.6842 20.9469 15.4554 20.026 16.4512 19.3896C17.4544 18.7458 18.5999 18.4238 19.8877 18.4238C21.2054 18.4238 22.3621 18.742 23.3579 19.3784C24.3612 20.0148 25.1323 20.932 25.6714 22.1299C26.2104 23.3203 26.48 24.7129 26.48 26.3076V27.3521ZM24.3237 26.2964C24.3237 24.3722 23.9382 22.8898 23.167 21.8491C22.4033 20.8009 21.3102 20.2769 19.8877 20.2769C18.5326 20.2769 17.4619 20.7972 16.6758 21.8379C15.8971 22.8711 15.4966 24.3086 15.4741 26.1504V27.3521C15.4741 29.2238 15.8634 30.6987 16.6421 31.7769C17.4282 32.855 18.5176 33.394 19.9102 33.394C21.3027 33.394 22.3809 32.8887 23.1445 31.8779C23.9082 30.8597 24.3013 29.4035 24.3237 27.5093V26.2964Z" fill="#061D28"/>
<path d="M31.04 16H29.6289V10.5605L27.9443 11.083V9.93555L30.8887 8.88086H31.04V16Z" fill="#061D28"/>
<path d="M67.9854 16H63.1123V15.0332L65.4121 12.582C65.7279 12.237 65.9606 11.9359 66.1104 11.6787C66.2633 11.4215 66.3398 11.1774 66.3398 10.9463C66.3398 10.6305 66.2601 10.3831 66.1006 10.2041C65.9411 10.0218 65.7132 9.93066 65.417 9.93066C65.098 9.93066 64.8457 10.0413 64.6602 10.2627C64.4779 10.4808 64.3867 10.7689 64.3867 11.127H62.9707C62.9707 10.694 63.0732 10.2985 63.2783 9.94043C63.4867 9.58236 63.7796 9.30241 64.1572 9.10059C64.5348 8.89551 64.9629 8.79297 65.4414 8.79297C66.1738 8.79297 66.7419 8.96875 67.1455 9.32031C67.5524 9.67188 67.7559 10.1683 67.7559 10.8096C67.7559 11.1611 67.6647 11.5192 67.4824 11.8838C67.3001 12.2484 66.9876 12.6732 66.5449 13.1582L64.9287 14.8623H67.9854V16Z" fill="#061D28"/>
<path d="M50.2158 29.8452L50.5303 32.0015L50.9907 30.0586L54.2251 18.6484H56.0444L59.2002 30.0586L59.6494 32.0352L59.9976 29.834L62.5356 18.6484H64.7031L60.7388 35H58.7734L55.4043 23.0845L55.146 21.8379L54.8877 23.0845L51.395 35H49.4297L45.4766 18.6484H47.6328L50.2158 29.8452Z" fill="#061D28"/>
<path d="M100.048 11.8203H100.8C101.158 11.8203 101.423 11.7308 101.596 11.5518C101.768 11.3727 101.854 11.1351 101.854 10.8389C101.854 10.5524 101.768 10.3294 101.596 10.1699C101.426 10.0104 101.192 9.93066 100.893 9.93066C100.622 9.93066 100.396 10.0055 100.214 10.1553C100.032 10.3018 99.9404 10.4938 99.9404 10.7314H98.5293C98.5293 10.3604 98.6286 10.0283 98.8271 9.73535C99.029 9.43913 99.3089 9.20801 99.667 9.04199C100.028 8.87598 100.425 8.79297 100.858 8.79297C101.61 8.79297 102.2 8.97363 102.626 9.33496C103.052 9.69303 103.266 10.1878 103.266 10.8193C103.266 11.1449 103.166 11.4443 102.968 11.7178C102.769 11.9912 102.509 12.2012 102.187 12.3477C102.587 12.4909 102.885 12.7057 103.08 12.9922C103.279 13.2786 103.378 13.6172 103.378 14.0078C103.378 14.6393 103.147 15.1455 102.685 15.5264C102.226 15.9072 101.617 16.0977 100.858 16.0977C100.149 16.0977 99.5677 15.9105 99.1152 15.5361C98.666 15.1618 98.4414 14.667 98.4414 14.0518H99.8525C99.8525 14.3187 99.9518 14.5368 100.15 14.7061C100.352 14.8753 100.6 14.96 100.893 14.96C101.228 14.96 101.49 14.8721 101.679 14.6963C101.871 14.5173 101.967 14.2812 101.967 13.9883C101.967 13.2786 101.576 12.9238 100.795 12.9238H100.048V11.8203Z" fill="#061D28"/>
<path d="M95.1045 27.4419H88.0181V33.2368H96.25V35H85.8618V18.6484H96.1377V20.4229H88.0181V25.6787H95.1045V27.4419Z" fill="#061D28"/>
<path d="M138.787 13.3242H139.593V14.4619H138.787V16H137.376V14.4619H134.461L134.397 13.5732L137.361 8.89062H138.787V13.3242ZM135.804 13.3242H137.376V10.8145L137.283 10.9756L135.804 13.3242Z" fill="#061D28"/>
<path d="M126.309 28.3853H122.468V35H120.3V18.6484H125.713C127.555 18.6484 128.97 19.0677 129.958 19.9062C130.954 20.7448 131.452 21.9652 131.452 23.5674C131.452 24.5856 131.175 25.4728 130.621 26.229C130.075 26.9852 129.311 27.5505 128.33 27.9248L132.171 34.8652V35H129.857L126.309 28.3853ZM122.468 26.6221H125.781C126.851 26.6221 127.701 26.3451 128.33 25.791C128.966 25.237 129.285 24.4958 129.285 23.5674C129.285 22.5566 128.981 21.7817 128.375 21.2427C127.776 20.7036 126.908 20.4303 125.77 20.4229H122.468V26.6221Z" fill="#061D28"/>
<path d="M170.322 12.5039L170.732 8.89062H174.717V10.0674H171.89L171.714 11.5957C172.049 11.4167 172.406 11.3271 172.783 11.3271C173.46 11.3271 173.991 11.5371 174.375 11.957C174.759 12.377 174.951 12.9645 174.951 13.7197C174.951 14.1787 174.854 14.5905 174.658 14.9551C174.466 15.3164 174.189 15.598 173.828 15.7998C173.467 15.9984 173.04 16.0977 172.549 16.0977C172.119 16.0977 171.72 16.0114 171.353 15.8389C170.985 15.6631 170.693 15.4173 170.479 15.1016C170.267 14.7858 170.155 14.4261 170.142 14.0225H171.538C171.567 14.3187 171.67 14.5498 171.846 14.7158C172.025 14.8786 172.257 14.96 172.544 14.96C172.863 14.96 173.109 14.846 173.281 14.6182C173.454 14.387 173.54 14.0615 173.54 13.6416C173.54 13.238 173.441 12.9287 173.242 12.7139C173.044 12.499 172.762 12.3916 172.397 12.3916C172.062 12.3916 171.79 12.4795 171.582 12.6553L171.445 12.7822L170.322 12.5039Z" fill="#061D28"/>
<path d="M168.334 20.4229H163.078V35H160.933V20.4229H155.688V18.6484H168.334V20.4229Z" fill="#061D28"/>
<path d="M209.94 8.81738V9.97949H209.804C209.166 9.98926 208.651 10.1553 208.261 10.4775C207.873 10.7998 207.641 11.2474 207.562 11.8203C207.94 11.4362 208.417 11.2441 208.993 11.2441C209.612 11.2441 210.103 11.4655 210.468 11.9082C210.832 12.3509 211.015 12.9336 211.015 13.6562C211.015 14.1185 210.914 14.5368 210.712 14.9111C210.513 15.2855 210.23 15.5768 209.862 15.7852C209.498 15.9935 209.084 16.0977 208.622 16.0977C207.873 16.0977 207.268 15.8372 206.806 15.3164C206.347 14.7956 206.117 14.1006 206.117 13.2314V12.7236C206.117 11.9521 206.262 11.2718 206.552 10.6826C206.845 10.0902 207.263 9.63281 207.807 9.31055C208.354 8.98503 208.987 8.82064 209.706 8.81738H209.94ZM208.563 12.377C208.336 12.377 208.129 12.4372 207.943 12.5576C207.758 12.6748 207.621 12.8311 207.533 13.0264V13.4561C207.533 13.9281 207.626 14.2975 207.812 14.5645C207.997 14.8281 208.257 14.96 208.593 14.96C208.896 14.96 209.14 14.8411 209.325 14.6035C209.514 14.3626 209.608 14.0518 209.608 13.6709C209.608 13.2835 209.514 12.971 209.325 12.7334C209.136 12.4958 208.882 12.377 208.563 12.377Z" fill="#061D28"/>
<path d="M197.478 26.8579L201.745 18.6484H204.193L198.556 28.9019V35H196.399V28.9019L190.762 18.6484H193.232L197.478 26.8579Z" fill="#061D28"/>
<path d="M246.446 9.68164L243.697 16H242.208L244.962 10.0332H241.427V8.89062H246.446V9.68164Z" fill="#061D28"/>
<path d="M238.952 18.6484V29.7666C238.945 31.3089 238.458 32.5705 237.492 33.5513C236.534 34.5321 235.231 35.0824 233.584 35.2021L233.011 35.2246C231.222 35.2246 229.796 34.7417 228.732 33.7759C227.669 32.8101 227.13 31.4811 227.115 29.7891V18.6484H229.249V29.7217C229.249 30.9046 229.575 31.8255 230.226 32.4844C230.877 33.1357 231.806 33.4614 233.011 33.4614C234.232 33.4614 235.164 33.1357 235.808 32.4844C236.459 31.833 236.785 30.9159 236.785 29.7329V18.6484H238.952Z" fill="#061D28"/>
<path d="M281.746 10.7803C281.746 11.1253 281.66 11.4313 281.487 11.6982C281.315 11.9652 281.077 12.1784 280.774 12.3379C281.119 12.5039 281.393 12.7334 281.595 13.0264C281.797 13.3161 281.897 13.6579 281.897 14.0518C281.897 14.6833 281.683 15.1829 281.253 15.5508C280.823 15.9154 280.239 16.0977 279.5 16.0977C278.761 16.0977 278.175 15.9137 277.742 15.5459C277.309 15.1781 277.093 14.68 277.093 14.0518C277.093 13.6579 277.194 13.3145 277.396 13.0215C277.597 12.7285 277.869 12.5007 278.211 12.3379C277.908 12.1784 277.671 11.9652 277.498 11.6982C277.329 11.4313 277.244 11.1253 277.244 10.7803C277.244 10.1748 277.446 9.69303 277.85 9.33496C278.253 8.97363 278.802 8.79297 279.495 8.79297C280.185 8.79297 280.732 8.97201 281.136 9.33008C281.543 9.6849 281.746 10.1683 281.746 10.7803ZM280.481 13.9492C280.481 13.64 280.392 13.3926 280.213 13.207C280.034 13.0215 279.793 12.9287 279.49 12.9287C279.191 12.9287 278.951 13.0215 278.772 13.207C278.593 13.3893 278.504 13.6367 278.504 13.9492C278.504 14.252 278.592 14.4961 278.768 14.6816C278.943 14.8672 279.188 14.96 279.5 14.96C279.806 14.96 280.045 14.8704 280.218 14.6914C280.394 14.5124 280.481 14.265 280.481 13.9492ZM280.335 10.8486C280.335 10.5719 280.262 10.3506 280.115 10.1846C279.969 10.0153 279.762 9.93066 279.495 9.93066C279.231 9.93066 279.026 10.012 278.88 10.1748C278.733 10.3376 278.66 10.5622 278.66 10.8486C278.66 11.1318 278.733 11.3597 278.88 11.5322C279.026 11.7048 279.233 11.791 279.5 11.791C279.767 11.791 279.972 11.7048 280.115 11.5322C280.262 11.3597 280.335 11.1318 280.335 10.8486Z" fill="#061D28"/>
<path d="M270.078 35H267.922V18.6484H270.078V35Z" fill="#061D28"/>
<path d="M315.913 13.1582C315.545 13.5195 315.116 13.7002 314.624 13.7002C313.996 13.7002 313.493 13.4854 313.115 13.0557C312.738 12.6227 312.549 12.04 312.549 11.3076C312.549 10.8421 312.65 10.4157 312.852 10.0283C313.057 9.6377 313.341 9.33496 313.706 9.12012C314.071 8.90202 314.481 8.79297 314.937 8.79297C315.405 8.79297 315.822 8.91016 316.187 9.14453C316.551 9.37891 316.834 9.71582 317.036 10.1553C317.238 10.5947 317.34 11.0977 317.344 11.6641V12.1865C317.344 13.3714 317.049 14.3024 316.46 14.9795C315.871 15.6566 315.036 16.0179 313.955 16.0635L313.608 16.0684V14.8916L313.921 14.8867C315.148 14.8314 315.812 14.2552 315.913 13.1582ZM314.971 12.6211C315.199 12.6211 315.394 12.5625 315.557 12.4453C315.723 12.3281 315.848 12.1865 315.933 12.0205V11.4395C315.933 10.9609 315.841 10.5898 315.659 10.3262C315.477 10.0625 315.233 9.93066 314.927 9.93066C314.644 9.93066 314.411 10.0609 314.229 10.3213C314.046 10.5785 313.955 10.9023 313.955 11.293C313.955 11.6803 314.043 11.9993 314.219 12.25C314.398 12.4974 314.648 12.6211 314.971 12.6211Z" fill="#061D28"/>
<path d="M311.07 27.3521C311.07 28.9543 310.8 30.3543 310.261 31.5522C309.722 32.7427 308.958 33.6523 307.97 34.2812C306.982 34.9102 305.829 35.2246 304.511 35.2246C303.223 35.2246 302.082 34.9102 301.086 34.2812C300.09 33.6449 299.315 32.7427 298.761 31.5747C298.215 30.3993 297.934 29.0404 297.919 27.498V26.3188C297.919 24.7466 298.192 23.3577 298.739 22.1523C299.285 20.9469 300.056 20.026 301.052 19.3896C302.056 18.7458 303.201 18.4238 304.489 18.4238C305.799 18.4238 306.952 18.742 307.948 19.3784C308.951 20.0073 309.722 20.9245 310.261 22.1299C310.8 23.3278 311.07 24.7241 311.07 26.3188V27.3521ZM308.925 26.2964C308.925 24.3573 308.535 22.8711 307.757 21.8379C306.978 20.7972 305.889 20.2769 304.489 20.2769C303.126 20.2769 302.052 20.7972 301.266 21.8379C300.487 22.8711 300.086 24.3086 300.064 26.1504V27.3521C300.064 29.2313 300.457 30.71 301.243 31.7881C302.037 32.8587 303.126 33.394 304.511 33.394C305.904 33.394 306.982 32.8887 307.746 31.8779C308.509 30.8597 308.902 29.4035 308.925 27.5093V26.2964Z" fill="#061D28"/>
<path d="M353.397 13.0605C353.397 14.0436 353.194 14.7956 352.787 15.3164C352.38 15.8372 351.785 16.0977 351 16.0977C350.225 16.0977 349.633 15.8421 349.223 15.3311C348.812 14.82 348.603 14.0876 348.593 13.1338V11.8252C348.593 10.8324 348.798 10.0788 349.208 9.56445C349.621 9.05013 350.215 8.79297 350.99 8.79297C351.765 8.79297 352.357 9.0485 352.768 9.55957C353.178 10.0674 353.388 10.7982 353.397 11.752V13.0605ZM351.986 11.625C351.986 11.0358 351.905 10.6077 351.742 10.3408C351.583 10.0706 351.332 9.93555 350.99 9.93555C350.658 9.93555 350.412 10.0641 350.253 10.3213C350.097 10.5752 350.014 10.974 350.004 11.5176V13.2461C350.004 13.8255 350.082 14.2568 350.238 14.54C350.398 14.82 350.652 14.96 351 14.96C351.345 14.96 351.594 14.8249 351.747 14.5547C351.9 14.2845 351.98 13.8711 351.986 13.3145V11.625Z" fill="#061D28"/>
<path d="M336.799 28.5986V35H334.643V18.6484H340.674C342.463 18.6484 343.863 19.1051 344.874 20.0186C345.892 20.932 346.401 22.1411 346.401 23.646C346.401 25.2332 345.903 26.4574 344.908 27.3184C343.919 28.1719 342.501 28.5986 340.651 28.5986H336.799ZM336.799 26.8354H340.674C341.827 26.8354 342.71 26.5659 343.324 26.0269C343.938 25.4803 344.245 24.6942 344.245 23.6685C344.245 22.6951 343.938 21.9165 343.324 21.3325C342.71 20.7485 341.868 20.4453 340.797 20.4229H336.799V26.8354Z" fill="#061D28"/>
<rect opacity="0.15" x="136" y="165" width="123" height="23" rx="3" fill="#061D28"/>
<path d="M35.0556 127H34.0556V128V133C34.0556 133.552 33.6079 134 33.0556 134H25C24.4478 134 24 133.552 24 133V128V127H23H19.707C18.8248 127 18.3748 125.941 18.9871 125.306L28.5253 115.414L38.7438 125.281C39.3909 125.905 38.9486 127 38.0492 127H35.0556Z" fill="#4A5B64" stroke="#4A5B64" stroke-width="2" stroke-linecap="round"/>
<path fill-rule="evenodd" clip-rule="evenodd" d="M328.707 125.293C329.098 124.902 329.731 124.902 330.121 125.293L336.707 131.879C337.098 132.269 337.098 132.902 336.707 133.293C336.317 133.683 335.683 133.683 335.293 133.293L328.707 126.707C328.317 126.316 328.317 125.683 328.707 125.293Z" fill="#4A5B64"/>
<path fill-rule="evenodd" clip-rule="evenodd" d="M336.293 125.293C335.902 124.902 335.269 124.902 334.879 125.293L328.293 131.879C327.902 132.269 327.902 132.902 328.293 133.293C328.683 133.683 329.317 133.683 329.707 133.293L336.293 126.707C336.683 126.316 336.683 125.683 336.293 125.293Z" fill="#4A5B64"/>
<path fill-rule="evenodd" clip-rule="evenodd" d="M325.585 121L320.385 129L325.585 137H340C340.552 137 341 136.552 341 136V122C341 121.448 340.552 121 340 121H325.585ZM324.5 139L318 129L324.5 119H340C341.657 119 343 120.343 343 122V136C343 137.657 341.657 139 340 139H324.5Z" fill="#4A5B64"/>
<path d="M106.531 180.016C107.312 181.328 108.469 181.984 110 181.984C111.531 181.984 112.688 181.328 113.469 180.016H115.109C114.703 181.047 114.031 181.891 113.094 182.547C112.188 183.172 111.156 183.484 110 183.484C108.844 183.484 107.797 183.172 106.859 182.547C105.953 181.891 105.297 181.047 104.891 180.016H106.531ZM104.328 183.672C105.922 185.234 107.812 186.016 110 186.016C112.188 186.016 114.062 185.234 115.625 183.672C117.219 182.078 118.016 180.188 118.016 178C118.016 175.812 117.219 173.938 115.625 172.375C114.062 170.781 112.188 169.984 110 169.984C107.812 169.984 105.922 170.781 104.328 172.375C102.766 173.938 101.984 175.812 101.984 178C101.984 180.188 102.766 182.078 104.328 183.672ZM102.922 170.969C104.891 169 107.25 168.016 110 168.016C112.75 168.016 115.094 169 117.031 170.969C119 172.906 119.984 175.25 119.984 178C119.984 180.75 119 183.109 117.031 185.078C115.094 187.016 112.75 187.984 110 187.984C107.25 187.984 104.891 187.016 102.922 185.078C100.984 183.109 100.016 180.75 100.016 178C100.016 175.25 100.984 172.906 102.922 170.969ZM105.406 176.594C105.125 176.281 104.984 175.922 104.984 175.516C104.984 175.109 105.125 174.766 105.406 174.484C105.719 174.172 106.078 174.016 106.484 174.016C106.891 174.016 107.234 174.172 107.516 174.484C107.828 174.766 107.984 175.109 107.984 175.516C107.984 175.922 107.828 176.281 107.516 176.594C107.234 176.875 106.891 177.016 106.484 177.016C106.078 177.016 105.719 176.875 105.406 176.594ZM112.438 176.594C112.156 176.281 112.016 175.922 112.016 175.516C112.016 175.109 112.156 174.766 112.438 174.484C112.75 174.172 113.109 174.016 113.516 174.016C113.922 174.016 114.266 174.172 114.547 174.484C114.859 174.766 115.016 175.109 115.016 175.516C115.016 175.922 114.859 176.281 114.547 176.594C114.266 176.875 113.922 177.016 113.516 177.016C113.109 177.016 112.75 176.875 112.438 176.594Z" fill="#666666"/>
<circle cx="331" cy="176" r="17" fill="#4DB6AC"/>
<path d="M337.984 170.984H340V176.984H324.812L328.422 180.594L327.016 182L321.016 176L327.016 170L328.422 171.406L324.812 175.016H337.984V170.984Z" fill="white"/>
</svg>
