<svg width="92" height="379" viewBox="0 0 92 379" fill="none" xmlns="http://www.w3.org/2000/svg">
<path d="M18.8465 127.843C10.4556 139.6 18.8112 154.87 19.6328 186.7C19.6328 186.7 15.9457 203.295 13.7068 218.273C11.4678 233.251 8.19812 246.944 8.19812 246.944L13.9159 250.064C13.9159 250.064 30.306 207.849 32.3261 188.242L29.1305 135.765L18.8465 127.843Z" fill="#FFCBB4"/>
<path d="M18.0831 77.4638C27.7625 63.2923 49.4954 66.6313 56.3022 76.788C64.5343 89.07 57.8352 115.871 57.8352 115.871C57.8352 115.871 34.4035 102.034 20.2655 124.912C20.2655 124.912 7.25637 93.3136 18.0831 77.4638Z" fill="#2B2B2B"/>
<path d="M44.3382 100.145C44.3382 100.145 44.4415 110.634 49.4647 119.544C49.4647 119.544 46.5101 126.393 36.6621 123.267C36.6621 123.267 37.4723 114.259 30.2542 104.296C25.4197 97.6245 44.3382 100.145 44.3382 100.145Z" fill="#FFB097"/>
<path d="M23.8974 94.9933C23.8974 94.9933 19.5951 91.5836 19.6393 96.1443C19.6887 101.428 24.667 102.985 25.403 101.217C26.1372 99.4506 23.8974 94.9933 23.8974 94.9933Z" fill="#F08F64"/>
<path d="M50.9421 92.1422C50.9421 92.1422 54.3583 87.8429 55.3512 92.2941C56.502 97.4502 52.0064 100.099 50.8892 98.5446C49.7728 96.9917 50.9421 92.1413 50.9421 92.1413V92.1422Z" fill="#F08F64"/>
<path d="M39.1754 112.409C30.6132 113.395 25.138 108.353 23.208 91.5654C22.2125 82.9051 26.0038 77.0856 35.5941 75.9815C45.1844 74.8764 49.8335 79.7224 50.829 88.3845C52.9029 106.424 48.0208 111.39 39.1762 112.409H39.1754Z" fill="#FFCBB4"/>
<path d="M48.6768 94.7055C48.9256 95.5499 48.2726 96.4872 47.2179 96.7981C46.1624 97.1099 45.106 96.678 44.8571 95.8344C44.6083 94.9899 45.2604 94.0527 46.316 93.7409C47.3697 93.429 48.427 93.861 48.6768 94.7055Z" fill="#FD6444"/>
<path d="M31.1266 97.2057C31.1708 98.0855 30.3147 98.8426 29.2169 98.8964C28.119 98.9503 27.1933 98.2816 27.1492 97.4036C27.1059 96.5238 27.9619 95.7668 29.0598 95.7129C30.1576 95.659 31.0834 96.3277 31.1266 97.2057Z" fill="#FD6444"/>
<path d="M43.9699 86.3549C43.8128 86.4689 43.5948 86.4662 43.4404 86.3381C42.1131 85.2304 40.0303 85.5219 40.0091 85.5246C39.7735 85.5599 39.5546 85.3974 39.5202 85.1615C39.484 84.9257 39.6464 84.7075 39.8829 84.6721C39.9844 84.6571 42.3708 84.3241 43.992 85.6756C44.1746 85.8276 44.1993 86.0996 44.0475 86.2825C44.0246 86.3108 43.9972 86.3355 43.9708 86.3549H43.9699Z" fill="#2A2A2A"/>
<path d="M31.3064 86.4831C31.2447 86.5281 31.1714 86.5564 31.0911 86.5643C31.0699 86.567 28.9731 86.7578 27.9334 88.1367C27.7887 88.3284 27.5195 88.3637 27.3289 88.2197C27.14 88.0757 27.1021 87.8063 27.246 87.6164C28.5177 85.9283 30.9173 85.7119 31.0187 85.7049C31.2553 85.6836 31.4626 85.8603 31.4829 86.0988C31.4962 86.2534 31.4256 86.3983 31.3064 86.4831Z" fill="#2A2A2A"/>
<path d="M43.5402 91.0485C43.6629 92.1138 43.2825 93.0308 42.6921 93.0988C42.1017 93.1677 41.5236 92.3603 41.4018 91.295C41.2791 90.2314 41.6586 89.3128 42.2499 89.2447C42.8395 89.1776 43.4184 89.9841 43.5411 91.0485H43.5402Z" fill="#393939"/>
<path d="M31.6042 92.4285C31.7268 93.4938 31.3482 94.4107 30.7569 94.4779C30.1665 94.5468 29.5875 93.7394 29.4649 92.675C29.344 91.6096 29.7226 90.6927 30.313 90.6247C30.9043 90.5558 31.4824 91.3641 31.6042 92.4285Z" fill="#393939"/>
<path d="M34.3762 102.59C34.3762 102.59 39.7939 102.722 42.3725 100.972C42.3725 100.972 41.2756 105.103 38.3227 105.085C35.369 105.066 34.3762 102.59 34.3762 102.59Z" fill="#393939"/>
<path d="M40.603 90.8528C40.603 90.8528 41.0823 88.1418 42.1316 88.2116C43.1817 88.2814 44.2204 90.4358 44.2204 90.4358L45.6483 89.4553L44.1507 89.8299C44.1507 89.8299 43.0908 87.5791 42.0733 87.6913C40.6242 87.8521 40.6039 90.8528 40.6039 90.8528H40.603Z" fill="#393939"/>
<path d="M32.3246 92.1223C32.3246 92.1223 31.2435 89.5916 30.2357 89.8972C29.2278 90.2037 28.7071 92.5384 28.7071 92.5384L27.0939 91.9077L28.6374 91.9324C28.6374 91.9324 29.1598 89.4979 30.1756 89.3769C31.6238 89.2038 32.3246 92.1223 32.3246 92.1223Z" fill="#393939"/>
<path d="M38.1766 97.6915C38.0071 97.8143 37.8147 97.9194 37.5994 98.006L37.2561 97.1412C37.9913 96.8479 38.1033 96.3594 38.068 96.0008C38.0177 95.4955 37.6577 95.0583 37.3682 95.0062C37.1988 94.9753 37.0417 95.106 36.8996 95.3931L36.0674 94.9779C36.5413 94.0212 37.2508 94.0389 37.5359 94.091C38.2649 94.2244 38.9038 95.0238 38.992 95.9089C39.0644 96.6306 38.7652 97.2631 38.1766 97.6915Z" fill="#FD6444"/>
<path d="M38.3728 77.3385C38.3728 77.3385 26.5524 80.7032 25.548 95.6335C24.5446 110.563 16.4193 112.498 16.4193 112.498C16.4193 112.498 4.63153 63.0981 39.0011 68.0192C39.0011 68.0192 46.3269 67.1545 52.3933 74.1664C58.4597 81.1793 51.2399 95.6335 51.2399 95.6335C51.2399 95.6335 50.698 88.92 49.4695 87.6781C49.4695 87.6781 42.6009 85.2127 38.3728 77.3376V77.3385Z" fill="#2A2A2A"/>
<path d="M87.1205 208.358C81.8987 190.257 71.5696 176.841 71.5696 176.841L55.9712 179.429L55.8141 179.147L54.5503 179.399L54.3685 179.396L54.3721 179.435L38.2652 182.657C38.2652 182.657 31.3322 195.58 26.7228 213.846C22.1125 232.113 35.9045 278.255 35.9045 278.255C35.9045 278.255 28.141 299.906 46.117 356.341H54.5874C54.5874 356.341 51.4289 286.048 52.6547 278.255C53.712 271.533 55.0719 246.904 54.3774 228.047C55.3543 228.256 56.378 228.343 57.4467 228.271L57.4485 228.269C57.392 247.134 59.5745 271.664 60.8568 278.34C62.3438 286.089 61.5496 356.49 61.5496 356.49L70.0155 356.204C86.0862 299.196 77.5981 277.776 77.5981 277.776C77.5981 277.776 92.3415 226.457 87.1205 208.355V208.358Z" fill="#F08F64"/>
<path d="M73.1923 177.299C56.2162 190.119 38.2349 183.776 38.2349 183.776C38.2349 183.776 33.5408 175.949 27.0931 160.526C22.9506 157.178 22.0557 152.306 22.1899 148.32C19.0516 140.075 14.8597 134.321 17.0051 130.101C18.7948 126.592 24.7889 124.334 30.6347 122.421C31.113 122.273 31.6028 122.114 32.0811 121.967C35.6968 120.802 39.1289 119.758 41.2981 118.605C45.0365 116.605 47.819 114.765 49.9759 112.875C50.8831 112.09 51.68 111.293 52.3905 110.483C55.6266 106.791 57.2814 102.644 59.7815 96.6934C60.7867 94.2765 74.772 87.2469 75.6174 130.813C75.9236 146.59 73.5091 148.221 72.8966 160.098C72.3936 169.925 73.1905 177.299 73.1905 177.299H73.1923Z" fill="#BCD3FF"/>
<path d="M73.8101 363.425C73.2929 359.897 74.5946 357.39 73.6742 355.688C72.2506 353.058 70.7486 356.384 70.7486 356.384C70.6285 352.378 63.9241 352.386 63.2525 354.218C63.0733 354.71 62.8686 355.149 62.6577 355.572C62.2411 354.606 61.536 353.669 60.6182 354.218C57.0352 356.366 61.4892 361.909 58.2301 365.947C54.0805 371.088 56.6353 378.859 56.6353 378.859H76.507C78.8333 367.962 74.3272 366.94 73.8101 363.426V363.425Z" fill="#99C3E0"/>
<path d="M61.5458 362.105C61.5458 362.105 66.2443 359.633 72.4758 362.905L71.2499 360.655C71.2499 360.655 67.1233 358.08 62.1186 360.002L61.5467 362.106L61.5458 362.105Z" fill="#D8E0E2"/>
<path d="M60.7268 365.839C60.7268 365.839 67.4154 363.514 73.646 366.785L72.4758 364.401C72.4758 364.401 66.5505 361.835 61.5458 363.756L60.7268 365.839Z" fill="#D8E0E2"/>
<path d="M42.0456 363.425C42.5628 359.897 41.2611 357.39 42.1816 355.688C43.605 353.058 45.1071 356.384 45.1071 356.384C45.2271 352.378 51.9316 352.386 52.6032 354.218C52.7823 354.71 52.9871 355.149 53.198 355.572C53.6137 354.606 54.3197 353.669 55.2375 354.218C58.8196 356.366 54.3656 361.909 57.6256 365.947C61.7743 371.088 59.2202 378.859 59.2202 378.859H39.3487C37.0215 367.962 41.5276 366.94 42.0456 363.426V363.425Z" fill="#99C3E0"/>
<path d="M54.3233 362.105C54.3233 362.105 49.6248 359.633 43.3933 362.905L44.6191 360.655C44.6191 360.655 48.7458 358.08 53.7506 360.002L54.3233 362.106V362.105Z" fill="#D8E0E2"/>
<path d="M55.1384 365.839C55.1384 365.839 48.4498 363.514 42.2192 366.785L43.3894 364.401C43.3894 364.401 49.3147 361.835 54.3194 363.756L55.1384 365.839Z" fill="#D8E0E2"/>
<path d="M0.0029305 251.288C6.50178 249.812 6.55298 244.158 12.1225 245.093C13.2725 245.287 14.0146 245.863 14.4956 246.545C15.4152 247.849 15.3587 249.593 14.5733 250.982C12.7703 254.17 11.2003 258.732 10.6099 261.096C9.92241 263.798 9.18817 262.583 9.18817 262.583C9.14581 262.838 9.11842 263.082 9.09018 263.326C8.86249 265.18 8.9728 266.58 7.89702 265.584C6.67738 264.468 7.08159 259.177 7.08159 259.177C4.67762 266.59 6.16642 268.001 4.96355 267.108C3.31854 265.892 4.43315 259.174 4.4658 258.972C2.2754 263.147 2.24098 265.739 1.40259 264.562C0.554491 263.37 3.44561 255.513 4.55052 252.632C4.79763 251.982 4.96088 251.583 4.96088 251.583C-0.253027 253.138 0.00202557 251.287 0.00202557 251.287L0.0029305 251.288Z" fill="#F08F64"/>
<path d="M4.55676 252.627C4.80387 251.978 4.96713 251.578 4.96713 251.578C4.96713 251.578 7.15843 252.168 9.18646 250.036C9.18646 250.036 8.1901 253.183 4.55676 252.627Z" fill="#EA6F47"/>
<path d="M9.76775 257.067C9.61773 257.705 8.73086 261.354 9.18798 262.576C9.14562 262.832 9.11823 263.075 9.08999 263.32C7.74422 262.79 9.488 257.821 9.76775 257.067Z" fill="#EA6F47"/>
<path d="M58.2368 365.932C58.2368 365.932 54.2531 370.942 55.8637 378.844H59.2269C59.2269 378.844 60.0018 371.742 58.2368 365.932Z" fill="#689AB1"/>
<path d="M60.6403 11.2305C60.6403 11.2305 60.6403 11.2305 62.6312 17.7425C64.6098 24.2642 65.5594 23.5664 69.0127 24.819C72.2401 25.9947 75.035 20.3316 75.5442 17.686C75.9908 15.4546 80.1404 11.4292 80.008 9.48412C79.9568 8.69883 79.4026 9.0875 78.2641 10.5176C76.9218 12.1933 75.1233 13.271 75.1233 13.271C74.1949 11.068 79.6488 5.48434 78.3012 3.27775C77.642 2.20802 74.3678 10.9761 72.9108 11.0697C72.9108 11.0697 72.4987 10.3021 73.7589 5.87124C74.4799 3.32633 75.2442 0.7134 74.6123 0.12951C73.4588 -0.926969 72.8702 4.66107 69.8935 10.303C69.8935 10.303 70.1838 7.43476 70.6313 4.79445C71.0504 2.38645 71.6929 0.17898 70.6048 0.0941791C69.7108 0.0208616 69.1618 3.79804 68.7197 6.19101C67.8884 10.6501 66.3122 13.7321 65.3829 15.2612C64.9469 15.9988 64.6416 16.3689 64.6416 16.3689C62.0655 9.89752 60.642 11.2296 60.642 11.2296L60.6403 11.2305Z" fill="#FFCBB4"/>
<path d="M64.6376 16.3768C64.6376 16.3768 67.3601 17.6391 67.864 19.8775C67.864 19.8775 68.8886 16.5534 65.3798 15.269C64.9438 16.0066 64.6385 16.3768 64.6385 16.3768H64.6376Z" fill="#FFB097"/>
<path d="M66.0124 20.617C66.0124 20.617 61.2045 52.8228 59.5189 65.3327C58.5111 72.8182 60.3643 110.343 60.3643 110.343C60.3643 110.343 64.8131 127.082 69.6907 126.195C73.3082 125.538 74.0742 120.349 74.3804 111.583C74.6867 102.817 69.3395 83.4077 70.0499 73.9683C71.469 55.1222 70.0137 46.2278 71.7761 22.457L66.0124 20.617Z" fill="#FFCBB4"/>
<path d="M89.9318 258.626C89.6988 261.706 89.5028 263.57 89.5028 263.57C89.5028 263.57 65.8956 277.631 59.2158 266.281C59.2158 266.281 58.125 265.925 57.0342 259.375C57.0219 259.325 57.0095 259.289 57.0095 259.264C57.0095 259.252 57.0095 259.252 57.0095 259.252C56.4826 256.123 55.9558 251.608 55.5507 245.094C55.624 246.86 56.0899 254.577 55.9302 260.846C55.8808 262.896 55.759 264.797 55.5384 266.281C55.5384 266.281 46.7626 276.71 25.5452 265.104C25.5452 265.104 25.2628 263.595 24.9204 260.92C23.8534 252.553 22.211 232.776 26.8442 212.189C29.0134 202.522 32.5806 192.682 38.2313 183.751C38.2313 183.751 39.6901 183.726 42.0438 183.591C44.3851 183.456 47.6328 183.222 51.237 182.793C52.2422 182.67 53.2597 182.548 54.3011 182.401C58.125 181.849 62.1828 181.088 65.8965 180.034C68.5687 179.285 71.0689 178.365 73.1896 177.273C73.1896 177.273 82.1497 188.609 87.1015 203.086C88.0944 206.006 88.9398 209.061 89.5037 212.165C92.078 226.299 90.7296 248.751 89.9326 258.626H89.9318Z" fill="#206CFF"/>
<path d="M87.1031 203.086C75.0911 200.657 68.7176 187.824 65.8979 180.034C68.5702 179.285 71.0704 178.365 73.1911 177.273C73.1911 177.273 82.1513 188.609 87.1031 203.086Z" fill="#115CEE"/>
<path d="M42.0448 183.613C40.1818 189.452 37.0312 199.231 35.5733 203.525C34.6299 206.31 30.8174 209.5 26.8461 212.211C29.0153 202.544 32.5824 192.704 38.2332 183.773C38.2332 183.773 39.692 183.748 42.0456 183.613H42.0448Z" fill="#115CEE"/>
<path d="M55.5395 245.036C51.5929 227.553 51.2125 196.305 51.2373 182.798C52.2424 182.675 53.26 182.552 54.3014 182.405C58.2974 211.495 53.3941 209.789 53.3941 209.789C52.8426 220.168 55.4045 243.712 55.5387 245.037L55.5395 245.036Z" fill="#115CEE"/>
<path d="M55.9382 260.863C55.8887 262.912 55.767 264.813 55.5463 266.298C55.5463 266.298 46.7706 276.727 25.5532 265.121C25.5532 265.121 25.2708 263.612 24.9283 260.937C29.5739 263.612 36.4372 267.071 42.0518 267.82C49.0501 268.74 53.904 263.587 55.9391 260.864L55.9382 260.863Z" fill="#0E5380"/>
<path d="M89.9326 258.62C89.6996 261.699 89.5036 263.564 89.5036 263.564C89.5036 263.564 65.8963 277.624 59.2165 266.275C59.2165 266.275 58.1134 265.919 57.0103 259.258C57.0711 259.577 58.0155 263.969 66.8036 266.656C73.1038 268.594 83.8776 262.545 89.9326 258.62Z" fill="#0E5380"/>
<path d="M73.4734 178.921C72.5538 183.559 42.4874 186.896 37.2656 185.313C37.2656 185.313 36.4687 183.117 36.1254 181.509C35.9542 180.688 35.8924 180.025 36.113 179.89C36.113 179.89 54.3643 181.411 72.8724 172.615C72.8724 172.615 73.2528 173.032 73.522 174.038C73.7797 175.032 73.9262 176.602 73.4725 178.921H73.4734Z" fill="#206CFF"/>
<path d="M73.4698 178.922C72.5502 183.559 42.4839 186.897 37.262 185.314C37.262 185.314 36.4651 183.118 36.1218 181.51C36.1218 181.51 53.5515 183.338 73.5184 174.039C73.7761 175.032 73.9226 176.603 73.4689 178.922H73.4698Z" fill="#0C47B8"/>
<path d="M48.7689 181.134C48.7689 181.134 48.9384 184.94 49.715 185.341C50.4934 185.742 55.8767 184.64 55.8767 184.64C55.8767 184.64 56.5924 181.804 55.8767 180.12L48.7689 181.134Z" fill="#99C3E0"/>
<path d="M61.6207 177.274C61.6207 177.274 62.8465 179.789 63.0513 184.083H64.7881C64.7881 184.083 64.992 179.209 63.6638 176.841L61.6207 177.274Z" fill="#145C9A"/>
<path d="M41.8925 181.069L43.7308 181.073C43.7308 181.073 43.9355 183.67 45.0599 187.146H43.4766C43.4766 187.146 41.1785 184.804 41.8933 181.068L41.8925 181.069Z" fill="#145C9A"/>
<path d="M52.3881 110.462C48.6497 118.657 41.7484 135.122 40.1184 148.482L39.9348 149.93L39.0276 148.789C38.5131 148.126 27.2972 133.858 30.6313 122.399C31.1096 122.252 31.5995 122.093 32.0778 121.945C28.7807 131.134 36.4171 143.06 39.1009 146.826C40.8412 135.06 46.2466 121.332 49.9726 112.854C50.8799 112.068 51.6768 111.272 52.3872 110.462H52.3881Z" fill="#E5F0F3"/>
<path d="M42.2853 150.857C42.2853 153.229 41.0268 155.151 39.4727 155.151C37.9195 155.151 36.6602 153.229 36.6602 150.857C36.6602 148.485 37.9204 146.563 39.4727 146.563C41.0268 146.563 42.2853 148.485 42.2853 150.857Z" fill="#E5F0F3"/>
<path d="M40.8963 150.882C40.8963 152.482 40.0465 153.777 38.999 153.777C37.9505 153.777 37.1016 152.482 37.1016 150.882C37.1016 149.282 37.9505 147.985 38.999 147.985C40.0465 147.985 40.8963 149.282 40.8963 150.882Z" fill="#206CFF"/>
</svg>
