<svg width="150" height="327" viewBox="0 0 150 327" fill="none" xmlns="http://www.w3.org/2000/svg">
<path d="M129.201 117.242C127.567 119.734 116.939 108.939 116.939 104.059C116.939 104.059 126.544 96.6876 130.836 99.3874C135.128 102.085 129.201 117.243 129.201 117.243V117.242Z" fill="#C78016"/>
<path d="M121.964 95.4955L113.103 110.77L104.169 116.072C104.169 116.072 106.011 125.24 110.156 127.46C114.3 129.679 117.588 115.225 117.588 115.225C117.588 115.225 130.801 105.327 136.168 94.0475C141.537 82.768 121.963 95.4955 121.963 95.4955H121.964Z" fill="#F08F64"/>
<path d="M102.825 45.7001C102.825 45.7001 139.446 69.3136 148.075 76.5076C148.075 76.5076 150.601 80.8266 148.075 88.3726C145.549 95.9178 141.34 102.436 141.34 102.436C141.34 102.436 141.55 105.613 140.918 105.926C140.287 106.238 138.183 107.08 138.183 107.713C138.183 108.344 132.709 113.049 129.132 117.611C129.132 117.611 123.813 105.926 116.504 104.238L126.012 87.5692C126.012 87.5692 125.683 87.2726 125.554 86.8214C125.347 86.0935 126.012 84.3357 126.012 84.3357L106.612 78.6493L102.825 45.701V45.7001Z" fill="#FFB320"/>
<path d="M18.1454 77.3234C14.7537 76.5926 6.20698 87.0145 6.04834 93.9829L17.4452 100.137L18.1454 77.3234Z" fill="#C78016"/>
<path d="M41.8198 59.538C39.2078 60.8761 14.1133 114.906 14.1133 114.906C14.1133 114.906 14.9091 125.751 20.34 126.971C25.7709 128.189 47.0142 106.237 47.0142 106.237C47.0142 106.237 52.4092 54.1071 41.8198 59.538Z" fill="#FFB320"/>
<path d="M12.9353 111.346C10.0528 102.587 9.11635 78.2165 11.2309 67.2061L16.4165 67.7158C16.4165 67.7158 19.8262 94.2418 23.3196 102.36C26.8139 110.479 26.2126 117.082 21.288 120.343C16.3642 123.605 13.5419 113.19 12.9353 111.346Z" fill="#FFCBB4"/>
<path d="M20.1609 56.3819C20.1609 56.3819 20.1609 56.382 19.3454 63.2768C18.5483 70.1798 17.4436 69.654 14.1468 71.5475C11.0649 73.3203 7.13902 68.1585 6.12151 65.6024C5.24359 63.447 0.240536 60.1769 0.00911718 58.2034C-0.0854705 57.4065 0.554632 57.6947 1.98998 58.9173C3.67694 60.3507 5.72207 61.098 5.72207 61.098C6.25654 58.7184 -0.372876 54.1266 0.591367 51.6668C1.06431 50.4738 6.06458 58.6598 7.57339 58.4843C7.57339 58.4843 7.8498 57.6388 5.72754 53.4297C4.51168 51.0114 3.23798 48.5327 3.7752 47.8304C4.75873 46.5582 6.41079 52.0531 10.5176 57.1589C10.5176 57.1589 11.9927 52.6837 13.4412 52.7568C14.4951 52.8099 18.9865 53.7099 19.8258 55.781C21.1984 59.1685 15.0138 53.5229 14.4493 55.781C14.2991 56.3819 14.8282 59.9356 16.067 61.297C16.6511 61.956 17.034 62.2711 17.034 62.2711C18.4537 55.3069 20.1618 56.381 20.1618 56.381L20.1609 56.3819Z" fill="#FFCBB4"/>
<path d="M16.8015 62.0602C16.8015 62.0602 14.5637 63.6979 14.4807 65.862C14.4807 65.862 13.0103 62.9512 15.9527 61.1575C16.4653 61.7682 16.8015 62.0602 16.8015 62.0602Z" fill="#CFA08A"/>
<path d="M71.8957 0.0429571C51.3333 -0.986335 47.1916 16.6263 49.4098 37.294C51.628 57.9599 46.8586 84.2874 44.0135 94.5085C41.1684 104.728 45.2873 113.753 45.2873 113.753C45.2873 113.753 42.7524 106.092 47.1879 94.5085C47.1879 94.5085 40.0945 118.076 59.1668 122.461C78.2373 126.847 82.4703 120.082 88.0518 87.2079C93.6343 54.3342 101.671 1.53275 71.8957 0.0429571Z" fill="#2B2B2B"/>
<path d="M41.9557 120.493C43.0024 126.054 58.1872 125.645 68.8674 118.789C79.5485 111.932 113.25 112.944 112.904 104.193C112.557 95.4427 67.2796 68.5502 67.2796 68.5502C67.2796 68.5502 38.5006 102.126 41.9557 120.492V120.493Z" fill="#C78016"/>
<path d="M37.3724 302.449L45.8552 304.444C45.8552 304.444 59.1155 232.829 62.1658 225.259C64.7877 218.73 75.9933 193.759 79.7115 174.578C79.8876 174.666 81.0475 174.463 82.623 174.159H82.6357C83.0268 174.07 83.4425 173.981 83.8835 173.892C84.2738 173.803 84.6904 173.714 85.106 173.625C85.421 192.742 89.543 216.317 90.8036 222.922C92.3292 230.937 91.5097 303.834 91.5097 303.834L100.22 303.542C116.744 244.515 108.022 222.337 108.022 222.337C108.022 222.337 123.172 169.205 117.803 150.469C116.026 144.22 113.833 138.555 111.716 133.792C111.539 133.398 111.375 133.017 111.186 132.648C107.153 123.783 103.485 118.283 103.485 118.283L85.7749 120.518L85.6115 120.226L85.0942 120.328V125.929L82.8508 125.815L82.3462 125.777H82.3335L74.985 125.382L73.9767 125.331L67.5485 124.988C67.5485 124.988 63.6914 131.174 58.1953 141.12C57.9938 141.501 57.7787 141.882 57.5772 142.263C55.6233 145.833 53.4805 149.846 51.2371 154.203C42.3503 171.541 45.3888 221.308 45.3888 221.308C45.3888 221.308 32.5569 241.314 37.3724 302.449Z" fill="#FFCBB4"/>
<path d="M97.4487 120.663C97.5116 120.793 102.09 131.971 111.562 134.412C111.385 134.01 111.221 133.62 111.031 133.244C102.533 130.53 98.3848 120.416 98.3347 120.299L97.4497 120.663H97.4487Z" fill="#6499B5"/>
<path d="M57.1262 142.477C67.9079 140.199 73.4075 129.09 74.8731 125.66C75.1303 125.04 75.2589 124.673 75.2709 124.647L74.3586 124.331C74.3457 124.357 74.1791 124.838 73.8442 125.61C72.3018 129.127 67.2519 138.858 57.7553 141.338C57.5499 141.718 57.3306 142.097 57.1252 142.477H57.1262Z" fill="#6499B5"/>
<path d="M82.6633 174.736C83.0554 174.647 83.472 174.558 83.914 174.468C85.4549 171.596 88.2601 165.418 90.5596 155.117C93.8697 140.286 86.3399 124.485 86.2644 124.331L85.4058 124.752C85.4813 124.906 92.8728 140.414 89.6382 154.913C89.499 155.526 89.3598 156.125 89.2207 156.7C89.1452 157.019 89.0688 157.325 88.9933 157.632C86.6438 167.064 83.9022 172.539 82.6642 174.735L82.6633 174.736Z" fill="#6499B5"/>
<path d="M89.2512 157.262C89.2949 157.262 89.3387 157.26 89.3841 157.257L89.3273 156.327C88.8377 156.352 88.2807 156.076 87.8339 155.557C87.2297 154.851 85.9366 152.619 86.9805 147.14C88.3804 139.782 83.0564 126.893 82.8299 126.347L81.9915 126.713C82.0465 126.843 87.4334 139.884 86.0852 146.961C85.0071 152.634 86.288 155.166 87.1493 156.17C87.7482 156.868 88.5071 157.261 89.253 157.261L89.2512 157.262Z" fill="#6499B5"/>
<path d="M67.3769 125.399C67.3769 125.399 85.8708 131.951 103.318 118.707C103.318 118.707 106.559 51.7479 100.394 47.2608C97.696 45.2961 92.3761 46.8684 87.245 49.263C80.6263 52.3557 74.2979 56.8044 74.2979 56.8044C74.2979 56.8044 62.8131 55.17 53.7618 56.1711C48.0007 56.7916 43.2355 58.4899 43.0213 62.3309C42.454 72.2294 67.3769 125.399 67.3769 125.399Z" fill="#FFCBB4"/>
<path d="M53.7655 56.4301C57.606 56.0072 58.317 59.0895 62.1567 60.5707C66.0097 62.0652 70.6232 63.2168 72.3684 63.3883C74.1136 63.5607 75.0364 65.8619 75.0364 65.8619C75.0364 65.8619 75.6594 62.7529 76.6074 62.4881C77.5303 62.2367 85.6719 53.5449 87.3677 49.0604C80.8214 52.2885 74.5624 56.9321 74.5624 56.9321C74.5624 56.9321 63.2034 55.2261 54.2512 56.271C53.9397 56.3767 53.7646 56.4301 53.7646 56.4301H53.7655Z" fill="#FFB097"/>
<path d="M104.034 310.957C103.495 307.376 104.85 304.831 103.892 303.104C102.411 300.434 100.848 303.81 100.848 303.81C100.723 299.744 93.7462 299.752 93.0474 301.612C92.8609 302.11 92.6479 302.557 92.4284 302.985C91.995 302.005 91.2602 301.054 90.3061 301.612C86.5776 303.791 91.2125 309.417 87.821 313.517C83.503 318.734 86.1607 326.622 86.1607 326.622H106.84C109.261 315.562 104.573 314.524 104.034 310.958V310.957Z" fill="#E8404E"/>
<path d="M91.4004 309.599C91.4004 309.599 96.3117 306.843 102.825 310.492L101.544 307.983C101.544 307.983 97.2305 305.111 91.9982 307.255L91.4013 309.6L91.4004 309.599Z" fill="#B7C6CB"/>
<path d="M90.7283 313.003C90.7283 313.003 97.6872 310.916 104.169 313.852L102.952 311.713C102.952 311.713 96.7874 309.408 91.5804 311.133L90.7283 313.003Z" fill="#B7C6CB"/>
<path d="M33.6331 310.957C34.1549 307.376 32.8414 304.831 33.7702 303.104C35.2067 300.434 36.7223 303.81 36.7223 303.81C36.8434 299.744 43.6088 299.752 44.2865 301.612C44.4673 302.11 44.6739 302.557 44.8868 302.985C45.3062 302.005 46.0186 301.054 46.9448 301.612C50.5603 303.791 46.0658 309.417 49.3546 313.517C53.5418 318.734 50.9637 326.622 50.9637 326.622H30.9116C28.5642 315.562 33.1103 314.524 33.6331 310.958V310.957Z" fill="#E8404E"/>
<path d="M46.3723 309.599C46.3723 309.599 41.461 306.843 34.9473 310.492L36.2286 307.983C36.2286 307.983 40.5422 305.111 45.7736 307.255L46.3714 309.6L46.3723 309.599Z" fill="#B7C6CB"/>
<path d="M47.0442 313.003C47.0442 313.003 40.0854 310.916 33.603 313.852L34.8206 311.713C34.8206 311.713 40.9852 309.408 46.1922 311.133L47.0442 313.003Z" fill="#B7C6CB"/>
<path d="M75.8479 34.8723C75.8479 34.8723 74.3839 52.6418 79.3031 55.1824C79.3031 55.1824 75.6692 61.9174 65.922 57.8184C65.922 57.8184 67.5684 48.6788 61.1221 37.8275C56.8058 30.5619 75.8479 34.8723 75.8479 34.8723Z" fill="#FFB097"/>
<path d="M56.4033 26.5088C56.4033 26.5088 52.7254 22.6199 51.8808 26.8099C50.9046 31.6633 55.6258 33.9732 56.7118 32.4825C57.7968 30.9918 56.4033 26.508 56.4033 26.508V26.5088Z" fill="#FFB097"/>
<path d="M84.6886 28.2908C84.6886 28.2908 88.5835 24.5116 88.7089 29.3347C88.8524 34.9212 84.258 36.7706 83.509 34.9333C82.7584 33.0951 84.6886 28.2917 84.6886 28.2917V28.2908Z" fill="#FFB097"/>
<path d="M68.7824 46.9694C59.919 46.2832 55.3557 40.0139 56.6783 22.3724C57.361 13.2723 62.3376 8.04349 72.2642 8.81108C82.1926 9.57866 85.9566 15.4835 85.2739 24.5845C83.8529 43.5411 77.9389 47.6778 68.7824 46.9703V46.9694Z" fill="#FFCBB4"/>
<path d="M81.9842 30.7527C82.0844 31.4897 81.1153 32.159 79.8213 32.2489C78.5263 32.3388 77.3943 31.8136 77.294 31.0766C77.1937 30.3397 78.1629 29.6703 79.4579 29.5804C80.7529 29.492 81.885 30.0158 81.9842 30.7527Z" fill="#FD6444"/>
<path d="M63.8328 29.9231C63.7081 31.0188 62.7088 31.75 61.6028 31.5555C60.495 31.36 59.7002 30.3132 59.8267 29.2175C59.9523 28.1218 60.9516 27.3906 62.0576 27.5862C63.1636 27.7795 63.9584 28.8274 63.8328 29.9231Z" fill="#FD6444"/>
<path d="M78.4011 21.4615C78.2415 21.551 78.0438 21.5038 77.9287 21.3334C76.9239 19.8751 74.9945 19.7557 74.9759 19.7557C74.7587 19.7441 74.5886 19.5247 74.5991 19.2657C74.608 19.0077 74.7919 18.8075 75.0115 18.8181C75.1047 18.8219 77.3153 18.9586 78.5421 20.7405C78.6798 20.9407 78.6547 21.2362 78.4862 21.4008C78.4602 21.4259 78.4319 21.448 78.4027 21.4624L78.4011 21.4615Z" fill="#2A2A2A"/>
<path d="M65.6075 19.0228C65.537 19.056 65.4565 19.0716 65.3734 19.0624C65.3517 19.0596 63.2071 18.8426 61.894 20.0456C61.7123 20.213 61.4339 20.1974 61.2713 20.0125C61.1077 19.8286 61.1221 19.5453 61.3038 19.3788C62.9089 17.9044 65.3644 18.1573 65.4692 18.1693C65.7105 18.196 65.884 18.4167 65.8596 18.6632C65.8415 18.8251 65.743 18.9585 65.6075 19.0219V19.0228Z" fill="#2A2A2A"/>
<path d="M77.2775 25.9453C77.2012 26.8722 76.6922 27.5921 76.1423 27.553C75.5906 27.5131 75.204 26.7296 75.2804 25.8034C75.3559 24.8765 75.864 24.1566 76.4156 24.1957C76.9664 24.2348 77.353 25.0176 77.2775 25.9453Z" fill="#2B2B2B"/>
<path d="M65.1774 24.9514C65.0767 26.0646 64.3991 26.9276 63.6635 26.8806C62.9278 26.8328 62.4145 25.8944 62.5141 24.7812C62.6148 23.668 63.2924 22.8042 64.028 22.852C64.7636 22.8989 65.2781 23.8401 65.1774 24.9514Z" fill="#2B2B2B"/>
<path d="M65.8627 36.349C65.8627 36.349 71.0967 37.2827 73.9265 36.2913C73.9265 36.2913 72.0886 39.3988 69.2264 38.9317C66.3634 38.4652 65.8618 36.349 65.8618 36.349H65.8627Z" fill="#2B2B2B"/>
<path d="M74.5986 25.2402C74.5986 25.2402 75.6117 22.4569 76.6612 22.7464C77.7107 23.0369 78.34 25.5383 78.34 25.5383L79.9751 24.7883L78.3873 24.8781C78.3873 24.8781 77.7534 22.2706 76.7012 22.1817C75.2043 22.0556 74.5986 25.2393 74.5986 25.2393V25.2402Z" fill="#2B2B2B"/>
<path d="M65.8618 24.8653C65.8618 24.8653 65.248 21.9533 64.1423 22.0728C63.0367 22.1923 62.0297 24.5661 62.0297 24.5661L60.4854 23.5652L62.0791 23.9064C62.0791 23.9064 63.1065 21.4294 64.1842 21.5078C65.7184 21.6206 65.8618 24.8663 65.8618 24.8663V24.8653Z" fill="#2B2B2B"/>
<path d="M70.7706 31.3825C70.582 31.4747 70.3741 31.5417 70.1477 31.5869L69.9749 30.651C70.7487 30.4991 70.9496 30.0298 70.9811 29.6627C71.0276 29.1455 70.7583 28.6355 70.4855 28.5261C70.3276 28.4637 70.1495 28.5623 69.9556 28.8236L69.2222 28.2458C69.8652 27.3768 70.5539 27.5315 70.8224 27.6391C71.5084 27.9158 71.9822 28.8426 71.9015 29.7486C71.8357 30.4873 71.4251 31.066 70.7706 31.3816V31.3825Z" fill="#FD6444"/>
<path d="M71.1168 10.1822C71.1168 10.1822 71.6517 16.2118 66.9521 19.952C66.9521 19.952 68.9046 16.2406 69.0431 13.8169C69.0431 13.8169 65.217 20.027 61.7038 20.6334C58.1905 21.2389 53.0928 23.0353 53.0928 23.0353C53.0928 23.0353 55.3664 8.3649 70.6369 7.4558C85.9074 6.5467 89.283 15.6011 86.4643 25.5383C86.4643 25.5383 80.4049 23.0571 79.2543 17.3006C79.2543 17.3006 80.7251 21.6908 72.6444 19.9494C72.6444 19.9494 74.3254 15.3315 71.1168 10.1814V10.1822Z" fill="#2B2B2B"/>
<path d="M122.17 193.68C73.1057 203.821 38.3076 191.012 38.3076 191.012L57.8471 118.796L58.2039 117.494L58.6367 115.862L59.0063 114.496L59.2484 113.637L59.618 112.284L59.9234 111.133L60.2288 109.995C60.1903 109.957 60.1398 109.92 60.1013 109.881C42.8674 94.9729 44.0137 60.0091 44.0137 60.0091C46.09 56.3045 50.382 55.8994 50.382 55.8994C60.6103 72.098 75.4745 81.8088 75.4745 81.8088C84.8114 72.515 91.3961 46.6429 91.3961 46.6429C97.2554 44.1018 101.981 47.5023 101.981 47.5023C112.132 63.5362 105.522 96.6153 104.401 101.775C104.3 102.217 104.248 102.458 104.248 102.458C104.465 102.9 104.681 103.355 104.885 103.811C105.025 104.102 105.165 104.405 105.306 104.708C105.726 105.619 106.134 106.516 106.528 107.427C106.796 108.021 107.051 108.616 107.292 109.222C107.789 110.373 108.26 111.524 108.719 112.687C124.692 153.063 122.17 193.679 122.17 193.679V193.68Z" fill="#342D05"/>
<path d="M104.841 104.293L103.811 103.438C103.094 102.855 102.906 102.954 102.529 103.164C101.699 103.599 100.82 103.859 99.0233 102.122C98.3575 101.465 97.9802 101.353 97.8291 101.378C97.5406 101.391 97.2257 101.726 96.8738 102.122C96.1826 102.891 95.2399 103.945 93.4305 103.586C92.1993 103.35 91.7967 103.797 91.2946 104.368C90.7291 105 89.9502 105.856 88.2033 104.888C87.3112 104.404 86.5947 104.702 85.4892 105.223C84.2832 105.794 82.8004 106.501 80.9911 105.261C80.5387 104.938 80.3632 104.975 80.3505 104.975C80.1994 105.012 79.9733 105.447 79.8231 105.756C79.4838 106.414 79.0568 107.245 78.1142 107.53C77.3606 107.766 76.4432 107.568 75.2996 106.947C73.5029 105.955 72.9873 106.661 72.1459 107.828C71.3163 108.982 70.1854 110.557 67.5094 109.441C65.8004 108.734 65.3354 109.218 64.5691 110.024C63.8906 110.731 63.099 111.562 61.4778 111.562C61.1766 111.562 60.8499 111.537 60.4854 111.475L60.7866 110.359C60.7486 110.321 60.6989 110.285 60.6609 110.247C62.3445 110.557 62.9606 109.912 63.6518 109.181C64.4687 108.324 65.4738 107.258 67.9997 108.3C69.7467 109.032 70.2994 108.263 71.1281 107.11C71.9704 105.943 73.1383 104.331 75.9157 105.869C76.7073 106.303 77.3479 106.477 77.7505 106.353C78.1775 106.216 78.429 105.721 78.6922 105.199C78.9935 104.616 79.3337 103.946 80.0366 103.773C80.5396 103.649 81.0797 103.809 81.7202 104.244C82.9144 105.063 83.8065 104.641 84.9373 104.108C86.0555 103.574 87.3121 102.979 88.8202 103.81C89.6869 104.294 89.838 104.108 90.3528 103.55C90.9055 102.93 91.7352 101.987 93.6829 102.371C94.7758 102.582 95.3168 101.999 95.932 101.305C96.4097 100.772 96.9624 100.163 97.7794 100.138C98.3955 100.113 99.1111 100.461 99.9027 101.23C101.185 102.47 101.511 102.296 101.926 102.073C102.542 101.738 103.245 101.477 104.363 102.296C104.262 102.73 104.212 102.966 104.212 102.966C104.425 103.4 104.639 103.847 104.84 104.293H104.841Z" fill="#F1AE65"/>
<path d="M101.744 108.346C101.138 108.573 100.419 108.219 99.7249 107.891C99.6113 107.827 99.4977 107.777 99.3969 107.726C99.8512 107.688 100.28 107.549 100.684 107.41C101.568 107.095 102.275 106.854 103.17 107.537C103.801 108.03 104.42 108.725 105.013 109.395C105.14 109.534 105.266 109.673 105.392 109.811C104.004 108.788 102.805 107.928 101.745 108.346H101.744ZM97.6423 107.473C97.2388 107.625 96.9481 107.979 96.7591 108.497C96.6073 108.889 96.4565 108.952 95.308 108.737C94.2857 108.548 92.8728 108.282 91.8878 109.608C90.5375 111.454 89.717 111.883 87.5336 110.746C85.9816 109.937 84.8076 110.607 83.9616 111.087C83.0784 111.58 82.6623 111.769 81.9681 111.239C81.3747 110.784 80.845 110.62 80.3398 110.696C79.6583 110.822 79.2921 111.416 79.0395 111.82C79.0268 111.833 79.0141 111.858 79.0013 111.883C78.1808 111.061 77.2095 111.832 76.5661 112.351C75.5185 113.197 74.7998 113.652 73.7893 112.945C73.2469 112.565 72.7416 112.439 72.2873 112.578C71.5177 112.793 71.177 113.589 70.8362 114.372C70.5455 115.029 70.2429 115.724 69.8013 115.863C69.4096 115.977 68.8417 115.699 68.4383 115.46C67.3534 114.777 66.4447 114.55 65.6615 114.764C64.8155 114.992 64.2985 115.662 63.8569 116.408C64.0332 116.054 64.1849 115.674 64.3239 115.309C64.6519 114.474 65.0181 113.527 65.5351 113.337C65.8132 113.249 66.1785 113.337 66.6328 113.59C68.7281 114.778 70.3183 113.539 71.4914 112.642C72.7662 111.656 73.3214 111.341 74.1419 111.972C75.8202 113.249 77.234 111.858 78.3698 110.747C79.7455 109.395 80.6542 108.624 81.979 109.457C84.1752 110.873 85.6009 110.342 86.6486 109.951C87.4436 109.648 87.7971 109.547 88.3268 109.963C89.7407 111.062 90.8383 109.66 91.5698 108.725C92.5538 107.461 92.9954 107.107 93.6651 107.487C95.3061 108.409 96.2148 107.689 96.77 107.259C97.237 106.893 97.2752 106.867 97.6786 107.196C97.7795 107.284 97.8803 107.348 97.9812 107.41C97.8676 107.423 97.754 107.423 97.6405 107.473H97.6423ZM106.791 109.457C106.539 109.192 106.262 108.889 105.958 108.548C105.328 107.84 104.671 107.095 103.927 106.539C102.5 105.44 101.213 105.882 100.266 106.21C99.4087 106.513 98.9789 106.627 98.4746 106.223C97.2879 105.238 96.481 105.882 95.9885 106.261C95.4833 106.652 95.1807 106.893 94.2848 106.388C92.5556 105.402 91.369 106.944 90.5748 107.942C89.6153 109.18 89.4135 109.205 89.111 108.965C88.0006 108.094 87.0411 108.447 86.2087 108.763C85.2365 109.13 84.3279 109.471 82.6623 108.397C81.6273 107.74 80.7187 107.74 79.9236 108.043C80.8323 107.322 81.2739 107.146 81.9427 107.65C83.571 108.889 84.883 108.194 85.9434 107.625C86.9148 107.119 87.559 106.816 88.4168 107.284C89.389 107.814 90.0823 107.537 90.4867 107.208C90.9283 106.854 91.219 106.311 91.4962 105.793C91.7615 105.325 92.0514 104.782 92.3294 104.718C92.4812 104.667 92.7583 104.781 93.0863 105.021C93.7678 105.527 94.3612 105.729 94.8909 105.628C95.5724 105.514 95.9513 104.971 96.2157 104.566C96.3547 104.376 96.531 104.099 96.6446 104.086C96.6818 104.086 96.909 104.098 97.4651 104.553C99.2569 106.07 100.355 105.552 101.175 105.16C101.743 104.895 102.084 104.731 102.727 105.072C103.787 105.628 105.074 106.752 106.034 107.662C105.643 106.752 105.239 105.855 104.822 104.946C104.317 104.553 103.8 104.2 103.32 103.947C102.109 103.316 101.251 103.72 100.632 104.023C99.913 104.351 99.4451 104.579 98.272 103.594C97.5778 102.999 97.0098 102.772 96.4674 102.836C95.8113 102.924 95.4579 103.443 95.1798 103.859C95.0036 104.112 94.8264 104.365 94.6746 104.39C94.6237 104.402 94.372 104.402 93.8169 103.998C93.1735 103.53 92.5929 103.353 92.0504 103.48C91.2054 103.669 90.7756 104.478 90.3849 105.198C90.1704 105.602 89.9433 106.033 89.7034 106.222C89.6025 106.298 89.4635 106.411 89.0219 106.171C87.5199 105.362 86.3214 105.995 85.3492 106.512C84.2642 107.081 83.6454 107.359 82.6986 106.639C81.0958 105.439 79.8209 106.487 78.786 107.321C77.7129 108.193 76.7924 108.952 75.3531 108.155C73.1569 106.955 72.0338 108.155 71.1379 109.116C70.3174 109.988 69.6613 110.67 68.1848 110.215C64.9036 109.204 63.7297 110.923 62.7838 112.288C62.4939 112.717 62.2159 113.122 61.8879 113.425C61.7361 113.564 61.5853 113.627 61.3699 113.602C60.8274 113.563 60.1205 113.046 59.5526 112.515L59.1864 113.867C59.7798 114.36 60.5367 114.803 61.2818 114.865H61.4335C61.9251 114.865 62.3794 114.689 62.7456 114.348C63.1745 113.956 63.5025 113.475 63.8305 113.008C64.7137 111.719 65.4207 110.696 67.8186 111.429C70.0394 112.111 71.2006 110.886 72.0465 109.976C72.917 109.041 73.4095 108.536 74.7471 109.268C76.0092 109.963 77.0441 109.824 77.9146 109.42C77.7629 109.572 77.6247 109.711 77.4857 109.837C76.1355 111.164 75.6057 111.493 74.8988 110.961C73.2332 109.698 71.8448 110.772 70.7217 111.644C69.4096 112.655 68.5382 113.21 67.2634 112.491C66.4556 112.049 65.736 111.935 65.1181 112.15C64.0577 112.529 63.5788 113.767 63.1491 114.841C62.8465 115.624 62.5057 116.521 62.1141 116.521C61.13 116.521 59.8425 115.561 58.9466 114.727L58.5803 116.092C59.5644 116.913 60.8774 117.785 62.1141 117.785C62.8328 117.785 63.3008 117.343 63.6533 116.749C63.6025 116.862 63.5398 116.963 63.4771 117.077C63.06 117.861 62.6565 118.606 62.0505 118.897C61.041 119.377 59.3881 118.568 58.1506 117.721L57.7971 119.022C58.8321 119.679 60.1442 120.299 61.3563 120.299C61.7852 120.299 62.2022 120.223 62.593 120.034C63.577 119.566 64.1077 118.556 64.5865 117.671C65.0154 116.888 65.4197 116.142 65.9877 115.991C66.4038 115.864 67.0099 116.054 67.7668 116.521C68.7009 117.103 69.4833 117.279 70.1775 117.064C71.1743 116.761 71.6286 115.712 71.9948 114.878C72.1592 114.487 72.4364 113.842 72.6254 113.792C72.6762 113.779 72.8016 113.805 73.067 113.982C74.9224 115.283 76.449 114.07 77.3576 113.337C77.6102 113.135 78.0391 112.869 78.1399 112.819C78.2408 112.946 78.5688 113.388 79.0995 113.312C79.6174 113.287 79.8945 112.832 80.109 112.478C80.248 112.263 80.4243 111.972 80.5633 111.948C80.6514 111.935 80.8659 111.999 81.1939 112.238C82.5696 113.312 83.68 112.68 84.5759 112.187C85.371 111.732 86.0016 111.378 86.9484 111.871C89.8761 113.388 91.3526 112.465 92.9055 110.367C93.398 109.698 94.0413 109.786 95.0763 109.988C95.9976 110.152 97.386 110.417 97.9412 108.926C98.0166 108.724 98.0803 108.648 98.1057 108.636C98.2574 108.573 98.8253 108.851 99.1661 109.028C100.024 109.432 101.072 109.951 102.195 109.52C102.636 109.344 103.873 110.266 104.769 110.936C105.778 111.681 107.003 112.579 108.202 112.919C107.747 111.757 107.28 110.607 106.788 109.456L106.791 109.457Z" fill="#F1AE65"/>
<path d="M85.4049 46.737C85.4049 46.737 84.5955 55.4282 89.2847 64.1239C98.3952 81.0202 99.1293 101.028 99.1293 101.028C107.113 98.9761 112.906 104.169 112.906 104.169C112.906 104.169 112.68 70.9633 102.655 45.3951C102.655 45.3951 93.9427 43.97 85.4058 46.7361L85.4049 46.737Z" fill="#D38208"/>
<path d="M57.2875 54.6385C57.2875 54.6385 61.044 63.6196 55.1626 80.5925C50.5775 93.827 48.1577 114.528 48.1577 114.528C42.7669 116.209 41.3341 120.299 41.3341 120.299C37.3606 94.5218 46.7523 97.5271 41.4962 59.0196C41.4962 59.0196 48.6558 53.3082 57.2875 54.6376V54.6385Z" fill="#F9A527"/>
<path d="M57.8286 54.9157C57.8286 54.9157 51.834 52.2971 47.7163 59.3084C47.7163 59.3084 54.6263 66.1761 56.358 73.6343L48.5591 79.4291C48.5591 79.4291 50.4755 87.1395 50.7715 98.793C50.7715 98.793 64.9087 65.3956 57.8286 54.9157Z" fill="#D38208"/>
<path d="M85.4347 47.0836C85.4347 47.0836 89.6828 43.7534 97.3468 51.5032C97.3468 51.5032 90.397 57.6643 91.3898 64.304C91.3898 64.304 97.2379 64.6975 100.809 67.8387C100.809 67.8387 97.8087 78.1 96.6834 83.3355C96.6834 83.3355 91.4098 69.3568 88.022 64.304C84.6342 59.2512 85.4338 47.0846 85.4338 47.0846L85.4347 47.0836Z" fill="#FFB320"/>
<path d="M17.8506 77.287C17.8506 77.287 13.4608 93.6495 6.04834 93.9307C6.04834 93.9307 9.29778 125.789 20.8776 127.019C20.8776 127.019 28.1121 113.912 25.7282 102.153C23.3451 90.3944 21.6462 91.6669 21.6462 91.6669L17.8506 77.287Z" fill="#FFB320"/>
<path d="M19.1537 55.109C18.6811 55.0865 17.8096 55.7811 18.4817 56.1171C18.8528 56.3027 19.1339 56.6666 19.4898 56.4531V56.1171C19.4613 55.747 19.5245 55.1266 19.1537 55.109Z" fill="#FDAA86"/>
</svg>
