<svg width="20" height="20" viewBox="0 0 20 20" fill="none" xmlns="http://www.w3.org/2000/svg">
<path d="M10 1V2V1ZM1 10H0H1ZM10 19V18V19ZM17.0711 17.0711C17.4616 16.6805 17.4616 16.0474 17.0711 15.6569C16.6805 15.2663 16.0474 15.2663 15.6569 15.6569L17.0711 17.0711ZM20 1C20 0.447715 19.5523 0 19 0C18.4477 0 18 0.447715 18 1H20ZM13 6C12.4477 6 12 6.44772 12 7C12 7.55228 12.4477 8 13 8V6ZM18.9036 5.57169C17.337 2.26651 13.9277 0 10 0V2C13.1463 2 15.857 3.81349 17.0964 6.42831L18.9036 5.57169ZM10 0C8.68678 0 7.38642 0.258658 6.17317 0.761205L6.93853 2.60896C7.90914 2.20693 8.94943 2 10 2V0ZM6.17317 0.761205C4.95991 1.26375 3.85752 2.00035 2.92893 2.92893L4.34315 4.34315C5.08601 3.60028 5.96793 3.011 6.93853 2.60896L6.17317 0.761205ZM2.92893 2.92893C2.00035 3.85752 1.26375 4.95991 0.761205 6.17317L2.60896 6.93853C3.011 5.96793 3.60028 5.08601 4.34315 4.34315L2.92893 2.92893ZM0.761205 6.17317C0.258658 7.38642 0 8.68678 0 10H2C2 8.94943 2.20693 7.90914 2.60896 6.93853L0.761205 6.17317ZM0 10C0 11.3132 0.258658 12.6136 0.761205 13.8268L2.60896 13.0615C2.20693 12.0909 2 11.0506 2 10H0ZM0.761205 13.8268C1.26375 15.0401 2.00035 16.1425 2.92893 17.0711L4.34315 15.6569C3.60028 14.914 3.011 14.0321 2.60896 13.0615L0.761205 13.8268ZM2.92893 17.0711C3.85752 17.9997 4.95991 18.7362 6.17317 19.2388L6.93853 17.391C5.96793 16.989 5.08602 16.3997 4.34315 15.6569L2.92893 17.0711ZM6.17317 19.2388C7.38642 19.7413 8.68678 20 10 20V18C8.94942 18 7.90914 17.7931 6.93853 17.391L6.17317 19.2388ZM10 20C12.6522 20 15.1957 18.9464 17.0711 17.0711L15.6569 15.6569C14.1566 17.1571 12.1217 18 10 18V20ZM18 1V6H20V1H18ZM18 6H13V8H18V6ZM18 6V8C19.1046 8 20 7.10457 20 6H18Z" fill="#4F4F4F"/>
</svg>
