<svg width="20" height="22" viewBox="0 0 20 22" fill="none" xmlns="http://www.w3.org/2000/svg">
<path d="M1.88341 7.92C1.90352 7.6694 2.01729 7.43557 2.20205 7.26508C2.38681 7.09459 2.62901 6.99995 2.88041 7H16.7844C17.0358 6.99995 17.278 7.09459 17.4628 7.26508C17.6475 7.43557 17.7613 7.6694 17.7814 7.92L18.6584 18.84C18.6805 19.1152 18.6454 19.392 18.5552 19.6529C18.4651 19.9139 18.3219 20.1533 18.1347 20.3562C17.9475 20.5592 17.7203 20.7211 17.4674 20.8319C17.2146 20.9427 16.9415 20.9999 16.6654 21H2.99941C2.72333 20.9999 2.45026 20.9427 2.19739 20.8319C1.94452 20.7211 1.71732 20.5592 1.53011 20.3562C1.34289 20.1533 1.19971 19.9139 1.10958 19.6529C1.01945 19.392 0.984324 19.1152 1.00641 18.84L1.88241 7.92H1.88341Z" stroke="white" stroke-width="2" stroke-linecap="round" stroke-linejoin="round"/>
<path d="M13.8324 10V5C13.8324 3.93913 13.411 2.92172 12.6608 2.17157C11.9107 1.42143 10.8933 1 9.8324 1C8.77153 1 7.75412 1.42143 7.00397 2.17157C6.25382 2.92172 5.8324 3.93913 5.8324 5V10" stroke="white" stroke-width="2" stroke-linecap="round" stroke-linejoin="round"/>
</svg>
