<svg width="64" height="64" viewBox="0 0 64 64" fill="none" xmlns="http://www.w3.org/2000/svg">
<path d="M32 0C14.3269 0 0 14.3269 0 32C0 49.6731 14.3269 64 32 64C49.6731 64 64 49.6731 64 32C64 14.3269 49.6731 0 32 0Z" fill="#206CFF" fill-opacity="0.35"/>
<path d="M51.862 35.3764V28.6233C51.8586 27.9664 52.1503 27.3426 52.6565 26.924L56.0993 24.055C54.7255 19.8734 52.2835 16.1231 49.0151 13.175C47.5626 11.854 45.9588 10.7095 44.2372 9.76538C34.2837 4.28194 21.898 6.08555 13.9217 14.18C5.94535 22.2744 4.32395 34.6852 9.95307 44.5571C14.4627 52.4837 22.8804 57.3792 32 57.3792C42.9562 57.3849 52.6767 50.3526 56.0993 39.9447L52.6565 37.0757C52.1503 36.6571 51.8586 36.0333 51.862 35.3764Z" fill="#35495E"/>
<path d="M44.2372 9.7656C36.9323 11.2222 26.5158 14.9297 18.8689 24.3532C14.2138 25.8441 10.0041 28.4724 6.62061 32.0001C6.6205 23.0256 11.3601 14.7183 19.0859 10.1517C26.8117 5.58515 36.3748 5.43834 44.2372 9.7656Z" fill="#3F5C6C"/>
<path d="M18.8689 24.3533C14.2417 30.2289 11.1747 37.1789 9.95304 44.5574C7.76468 40.7345 6.61575 36.4051 6.62062 32.0002C10.0041 28.4725 14.2139 25.8442 18.8689 24.3533Z" fill="#3B97D3"/>
<path d="M56.0993 39.9448C53.4063 48.1221 46.75 54.3758 38.4207 56.5539C30.0915 58.7321 21.2259 56.5376 14.8745 50.7255C12.919 48.9418 11.258 46.86 9.95312 44.5572C11.1748 37.1787 14.2418 30.2287 18.869 24.3531C21.3318 23.5735 23.8995 23.1753 26.4828 23.1724C30.2566 23.0688 33.9658 24.1661 37.0759 26.3062C40.8717 28.7227 44.0717 31.7241 51.8621 32V35.3765C51.8587 36.0334 52.1503 36.6572 52.6566 37.0758L56.0993 39.9448Z" fill="#2980BA"/>
<path d="M22.069 39.7241C23.8973 39.7241 25.3794 38.242 25.3794 36.4137C25.3794 34.5855 23.8973 33.1034 22.069 33.1034C20.2408 33.1034 18.7587 34.5855 18.7587 36.4137C18.7587 38.242 20.2408 39.7241 22.069 39.7241Z" fill="#9FC9D3"/>
<path d="M40.8276 48.5516C43.2653 48.5516 45.2414 46.5755 45.2414 44.1378C45.2414 41.7001 43.2653 39.724 40.8276 39.724C38.3899 39.724 36.4138 41.7001 36.4138 44.1378C36.4138 46.5755 38.3899 48.5516 40.8276 48.5516Z" fill="#9FC9D3"/>
<path d="M36.4137 35.3103C37.0232 35.3103 37.5172 34.8163 37.5172 34.2068C37.5172 33.5974 37.0232 33.1034 36.4137 33.1034C35.8043 33.1034 35.3103 33.5974 35.3103 34.2068C35.3103 34.8163 35.8043 35.3103 36.4137 35.3103Z" fill="#9FC9D3"/>
<path d="M27.5862 29.7931C28.1957 29.7931 28.6897 29.2991 28.6897 28.6896C28.6897 28.0802 28.1957 27.5862 27.5862 27.5862C26.9768 27.5862 26.4828 28.0802 26.4828 28.6896C26.4828 29.2991 26.9768 29.7931 27.5862 29.7931Z" fill="#9FC9D3"/>
<path d="M30.8965 52.9654C31.506 52.9654 32 52.4714 32 51.862C32 51.2526 31.506 50.7585 30.8965 50.7585C30.2871 50.7585 29.7931 51.2526 29.7931 51.862C29.7931 52.4714 30.2871 52.9654 30.8965 52.9654Z" fill="#9FC9D3"/>
<path d="M29.7931 43.0344C30.4026 43.0344 30.8966 42.5404 30.8966 41.931C30.8966 41.3215 30.4026 40.8275 29.7931 40.8275C29.1837 40.8275 28.6897 41.3215 28.6897 41.931C28.6897 42.5404 29.1837 43.0344 29.7931 43.0344Z" fill="#9FC9D3"/>
<path d="M13.2414 36.4137C13.8508 36.4137 14.3448 35.9196 14.3448 35.3102C14.3448 34.7008 13.8508 34.2068 13.2414 34.2068C12.632 34.2068 12.1379 34.7008 12.1379 35.3102C12.1379 35.9196 12.632 36.4137 13.2414 36.4137Z" fill="#9FC9D3"/>
<path d="M18.7586 46.3448C19.368 46.3448 19.8621 45.8508 19.8621 45.2414C19.8621 44.632 19.368 44.1379 18.7586 44.1379C18.1492 44.1379 17.6552 44.632 17.6552 45.2414C17.6552 45.8508 18.1492 46.3448 18.7586 46.3448Z" fill="#9FC9D3"/>
<path d="M56.2759 34.207C55.6665 34.207 55.1725 33.713 55.1725 33.1036V30.8967C55.1725 30.2872 55.6665 29.7932 56.2759 29.7932C56.8853 29.7932 57.3794 30.2872 57.3794 30.8967V33.1036C57.3794 33.713 56.8853 34.207 56.2759 34.207Z" fill="#95A5A5"/>
</svg>
